<?xml version="1.0" standalone="no"?>
<!DOCTYPE svg PUBLIC "-//W3C//DTD SVG 20010904//EN"
 "http://www.w3.org/TR/2001/REC-SVG-20010904/DTD/svg10.dtd">
<svg version="1.0" xmlns="http://www.w3.org/2000/svg"
 width="260.000000pt" height="260.000000pt" viewBox="0 0 260.000000 260.000000"
 preserveAspectRatio="xMidYMid meet">
<metadata>
Created by potrace 1.11, written by Peter Selinger 2001-2013
</metadata>
<g transform="translate(0.000000,260.000000) scale(0.100000,-0.100000)"
fill="#000000" stroke="none">
<path d="M1170 2594 c-14 -2 -49 -9 -77 -15 -29 -6 -55 -10 -58 -10 -12 1
-146 -53 -200 -81 -289 -148 -494 -433 -544 -755 -14 -93 -7 -297 13 -391 57
-262 202 -542 420 -812 167 -206 484 -509 552 -526 13 -3 34 -4 47 0 59 14
395 331 522 491 22 28 43 52 46 55 17 15 134 181 177 252 166 275 241 507 247
758 9 413 -218 774 -597 949 -130 60 -230 82 -388 86 -74 1 -146 1 -160 -1z
m290 -176 c30 -6 57 -12 60 -13 3 -1 19 -5 35 -10 105 -28 249 -117 347 -215
155 -155 235 -337 245 -561 15 -307 -128 -648 -420 -1002 -125 -150 -399 -422
-427 -422 -24 0 -309 273 -390 374 -19 23 -45 55 -58 69 -83 96 -196 270 -268
414 -182 362 -181 718 4 998 59 90 252 270 289 270 4 0 14 6 22 13 39 33 190
81 291 93 30 3 56 7 58 9 6 6 164 -7 212 -17z"/>
<path d="M1225 2005 c-156 -33 -271 -133 -323 -280 -18 -52 -21 -77 -17 -180
7 -208 63 -386 174 -555 52 -80 59 -88 138 -168 61 -61 77 -73 100 -70 45 6
72 26 81 61 11 41 3 58 -64 127 -62 64 -105 122 -151 203 -18 33 -33 60 -33
62 0 1 19 -4 43 -12 23 -8 71 -16 106 -18 243 -10 444 184 436 422 -3 119 -33
196 -110 281 -58 64 -166 121 -246 128 -29 3 -58 7 -64 8 -5 2 -37 -3 -70 -9z
m171 -180 c113 -47 178 -181 145 -301 -34 -126 -180 -209 -308 -175 -91 25
-176 125 -186 221 -4 41 15 121 38 156 68 104 200 146 311 99z"/>
</g>
</svg>
