<?xml version="1.0" encoding="utf-8"?>
<!-- Generator: Adobe Illustrator 17.1.0, SVG Export Plug-In . SVG Version: 6.00 Build 0)  -->
<!DOCTYPE svg PUBLIC "-//W3C//DTD SVG 1.1//EN" "http://www.w3.org/Graphics/SVG/1.1/DTD/svg11.dtd">
<svg version="1.1" id="Calque_1" xmlns="http://www.w3.org/2000/svg" xmlns:xlink="http://www.w3.org/1999/xlink" x="0px" y="0px"
	 viewBox="0 0 114.9 114.9" enable-background="new 0 0 114.9 114.9" xml:space="preserve">
<path fill="#FBFBFB" d="M45.6,58c-0.2-0.2-0.2-0.3-0.2-0.5c0-0.2,0.1-0.4,0.2-0.5l30.8-30.8c1.2-1.2,1.2-3.1,0-4.3l0,0
	C75.8,21.3,75,21,74.2,21c-0.8,0-1.5,0.3-2.2,0.9L38.4,55.5c-1.2,1.2-1.2,2.9,0,4.1L72,93.2c0.5,0.5,1.3,0.9,2.2,0.9
	s1.5-0.3,2.2-0.9l0,0c1.2-1.2,1.2-3.1,0-4.3L45.6,58z"/>
<rect x="0" y="0" fill="none" width="114.9" height="114.9"/>
</svg>
