<?xml version="1.0" encoding="utf-8"?>
<!-- Generator: Adobe Illustrator 17.1.0, SVG Export Plug-In . SVG Version: 6.00 Build 0)  -->
<!DOCTYPE svg PUBLIC "-//W3C//DTD SVG 1.1//EN" "http://www.w3.org/Graphics/SVG/1.1/DTD/svg11.dtd">
<svg version="1.1" id="Calque_1" xmlns="http://www.w3.org/2000/svg" xmlns:xlink="http://www.w3.org/1999/xlink" x="0px" y="0px"
	 viewBox="0 0 114.9 114.9" enable-background="new 0 0 114.9 114.9" xml:space="preserve">
<path fill="#FBFBFB" d="M62.8,57.3l29.9-29.9c1.2-1.2,1.2-3.2,0-4.4l-0.1-0.1c-1.2-1.2-3.2-1.2-4.4,0L58.3,52.9L28.5,23.1
	c-1.2-1.2-3.2-1.2-4.4,0L24,23.2c-1.2,1.2-1.2,3.2,0,4.4l29.8,29.7L24,87.1c-1.2,1.2-1.2,3.2,0,4.4l0.1,0.1c1.2,1.2,3.2,1.2,4.4,0
	l29.9-29.8l29.9,29.9c1.2,1.2,3.2,1.2,4.4,0l0.1-0.1c1.2-1.2,1.2-3.2,0-4.4L62.8,57.3z"/>
<rect x="0.9" y="-0.1" fill="none" width="114.9" height="114.9"/>
</svg>
