<?xml version="1.0" encoding="utf-8"?>
<!-- Generator: Adobe Illustrator 17.1.0, SVG Export Plug-In . SVG Version: 6.00 Build 0)  -->
<!DOCTYPE svg PUBLIC "-//W3C//DTD SVG 1.1//EN" "http://www.w3.org/Graphics/SVG/1.1/DTD/svg11.dtd">
<svg version="1.1" xmlns="http://www.w3.org/2000/svg" xmlns:xlink="http://www.w3.org/1999/xlink" x="0px" y="0px"
	 viewBox="0 0 533.2 332" enable-background="new 0 0 533.2 332" xml:space="preserve">
<g id="Calque_1">
</g>
<g id="Calque_4">
</g>
<g id="Calque_2">
	
		<linearGradient id="SVGID_1_" gradientUnits="userSpaceOnUse" x1="-9574.6455" y1="-3305.908" x2="-9270.2783" y2="-3001.5408" gradientTransform="matrix(0.2893 0 0 0.2893 3000.0422 1031.8168)">
		<stop  offset="1.102941e-002" style="stop-color:#FBFBFB;stop-opacity:0.1"/>
		<stop  offset="1" style="stop-color:#FBFBFB;stop-opacity:0"/>
	</linearGradient>
	<path fill="url(#SVGID_1_)" d="M341.2,116.9c-0.3-0.3-0.6-0.6-1-1c-0.3-0.3-0.6-0.6-1-1c-0.3-0.3-0.6-0.6-1-1c-0.3-0.3-0.6-0.6-1-1
		c-0.3-0.3-0.6-0.6-1-1c-0.3-0.3-0.6-0.6-1-1c-0.3-0.3-0.6-0.6-1-1c-0.3-0.3-0.6-0.6-1-1c-0.3-0.3-0.6-0.6-1-1c-0.3-0.3-0.6-0.6-1-1
		c-0.3-0.3-0.6-0.6-1-1c-0.3-0.3-0.6-0.6-1-1c-0.3-0.3-0.6-0.6-1-1c-0.3-0.3-0.6-0.6-1-1c-0.3-0.3-0.6-0.6-1-1c-0.3-0.3-0.6-0.6-1-1
		c-0.3-0.3-0.6-0.6-1-1c-0.3-0.3-0.6-0.6-1-1c-0.3-0.3-0.6-0.6-1-1c-0.3-0.3-0.6-0.6-1-1c-0.3-0.3-0.6-0.6-1-1c-0.3-0.3-0.6-0.6-1-1
		c-0.3-0.3-0.6-0.6-1-1c-0.3-0.3-0.6-0.6-1-1c-0.3-0.3-0.6-0.6-1-1c-0.3-0.3-0.6-0.6-1-1c-0.3-0.3-0.6-0.6-1-1c-0.3-0.3-0.6-0.6-1-1
		c-0.3-0.3-0.6-0.6-1-1c-0.3-0.3-0.6-0.6-1-1c-0.3-0.3-0.6-0.6-1-1c-0.3-0.3-0.6-0.6-1-1c-0.3-0.3-0.6-0.6-1-1c-0.3-0.3-0.6-0.6-1-1
		c-0.3-0.3-0.6-0.6-1-1c-0.3-0.3-0.6-0.6-1-1c-0.3-0.3-0.6-0.6-1-1c-0.3-0.3-0.6-0.6-1-1c-0.3-0.3-0.6-0.6-1-1c-0.3-0.3-0.6-0.6-1-1
		c-0.3-0.3-0.6-0.6-1-1c-0.3-0.3-0.6-0.6-1-1c-0.3-0.3-0.6-0.6-1-1c-0.3-0.3-0.6-0.6-1-1c-0.3-0.3-0.6-0.6-1-1c-0.3-0.3-0.6-0.6-1-1
		c-0.3-0.3-0.6-0.6-1-1c-0.3-0.3-0.6-0.6-1-1c-0.3-0.3-0.6-0.6-1-1c-0.3-0.3-0.6-0.6-1-1c-0.1-0.2-0.3-0.3-0.4-0.5
		c6.6,7.1,10.7,16.6,10.7,27.1c0,21.9-17.8,39.8-39.8,39.8c-5.9,0-11.4-1.3-16.4-3.6c5,11.2,12.3,21.5,21.6,29.9
		c3.2,2.9,3.5,7.8,0.6,11.1c-1.5,1.7-3.7,2.6-5.8,2.6c-1.9,0-3.8-0.7-5.2-2c-0.9-0.8-1.7-1.6-2.5-2.4c0,0,0,0,0,0
		c0.3,0.3,0.6,0.6,1,1c0.3,0.3,0.6,0.6,1,1c0.3,0.3,0.6,0.6,1,1c0.3,0.3,0.6,0.6,1,1c0.3,0.3,0.6,0.6,1,1c0.3,0.3,0.6,0.6,1,1
		c0.3,0.3,0.6,0.6,1,1c0.3,0.3,0.6,0.6,1,1c0.3,0.3,0.6,0.6,1,1c0.3,0.3,0.6,0.6,1,1c0.3,0.3,0.6,0.6,1,1c0.3,0.3,0.6,0.6,1,1
		c0.3,0.3,0.6,0.6,1,1c0.3,0.3,0.6,0.6,1,1c0.3,0.3,0.6,0.6,1,1c0.3,0.3,0.6,0.6,1,1c0.3,0.3,0.6,0.6,1,1c0.3,0.3,0.6,0.6,1,1
		c0.3,0.3,0.6,0.6,1,1c0.3,0.3,0.6,0.6,1,1c0.3,0.3,0.6,0.6,1,1c0.3,0.3,0.6,0.6,1,1c0.3,0.3,0.6,0.6,1,1c0.3,0.3,0.6,0.6,1,1
		c0.3,0.3,0.6,0.6,1,1c0.3,0.3,0.6,0.6,1,1c0.3,0.3,0.6,0.6,1,1c0.3,0.3,0.6,0.6,1,1c0.3,0.3,0.6,0.6,1,1c0.3,0.3,0.6,0.6,1,1
		c0.3,0.3,0.6,0.6,1,1c0.3,0.3,0.6,0.6,1,1c0.3,0.3,0.6,0.6,1,1c0.3,0.3,0.6,0.6,1,1c0.3,0.3,0.6,0.6,1,1c0.1,0.1,0.2,0.2,0.3,0.3
		c20.4-21.2,44.8-52.5,52.6-86.7c-0.1-0.1-0.2-0.2-0.2-0.2C341.9,117.6,341.6,117.2,341.2,116.9z"/>
	
		<linearGradient id="SVGID_2_" gradientUnits="userSpaceOnUse" x1="-9551.3594" y1="-3329.1936" x2="-9246.9922" y2="-3024.8264" gradientTransform="matrix(0.2893 0 0 0.2893 3000.0422 1031.8168)">
		<stop  offset="1.102941e-002" style="stop-color:#FBFBFB;stop-opacity:0.1"/>
		<stop  offset="1" style="stop-color:#FBFBFB;stop-opacity:0"/>
	</linearGradient>
	<path fill="url(#SVGID_2_)" d="M287.9,95.6c0-13.3-10.8-24.1-24.1-24.1c-13.3,0-24.1,10.8-24.1,24.1c0,13.3,10.8,24.1,24.1,24.1
		C277,119.7,287.9,108.9,287.9,95.6z"/>
	<path fill="#FBFBFB" d="M263.7,175.3c2.1,0,4.3-0.9,5.8-2.6c2.9-3.2,2.7-8.2-0.6-11.1c-9.3-8.4-16.6-18.6-21.6-29.9
		c5,2.3,10.6,3.6,16.4,3.6c21.9,0,39.8-17.8,39.8-39.8c0-10.5-4.1-20-10.7-27.1c-5.8-6.2-13.6-10.6-22.4-12.1c-0.1,0-0.1,0-0.2,0
		c-0.2,0-0.5-0.1-0.7-0.1c-0.2,0-0.3,0-0.5-0.1c-0.1,0-0.3,0-0.4-0.1c-0.2,0-0.4,0-0.7-0.1c-0.1,0-0.2,0-0.3,0c-0.3,0-0.5,0-0.8-0.1
		c-0.1,0-0.1,0-0.2,0c-0.3,0-0.6,0-0.8,0c0,0-0.1,0-0.1,0c-0.3,0-0.6,0-0.9,0c0,0-0.1,0-0.1,0c-0.3,0-0.6,0-0.9,0c0,0,0,0,0,0
		c-21.9,0-39.8,17.8-39.8,39.8c0,0.8,0,1.6,0,2.4c0,0.1,0,0.2,0,0.3c0,0.3,0,0.6,0,1c0,0.1,0,0.3,0,0.4c0,0.3,0,0.6,0,0.9
		c0,0.1,0,0.3,0,0.4c0,0.3,0,0.6,0,0.9c0,0.1,0,0.3,0,0.4c0,0.3,0,0.6,0.1,0.9c0,0.1,0,0.3,0,0.4c0,0.3,0,0.6,0.1,0.9
		c0,0.1,0,0.3,0,0.4c0,0.3,0.1,0.6,0.1,1c0,0.1,0,0.2,0,0.3c0,0.3,0.1,0.7,0.1,1c0,0.1,0,0.2,0,0.3c0,0.3,0.1,0.7,0.1,1
		c0,0.1,0,0.2,0,0.2c0,0.4,0.1,0.7,0.1,1.1c0,0,0,0.1,0,0.2c0.1,0.4,0.1,0.8,0.2,1.2c0,0,0,0,0,0c3.4,22.6,14.2,43.7,30.8,59.7
		c0.8,0.8,1.7,1.6,2.5,2.4C260,174.6,261.9,175.3,263.7,175.3z M239.6,95.6c0-13.3,10.8-24.1,24.1-24.1c13.3,0,24.1,10.8,24.1,24.1
		c0,13.3-10.8,24.1-24.1,24.1C250.5,119.7,239.6,108.9,239.6,95.6z"/>
</g>
<g id="Calque_3">
	<g>
		<path fill="none" d="M276.9,159.1c0-0.2,0-0.4,0-0.5c0-25.9,21.1-47,47-47c5.8,0,11.5,1.1,16.9,3.1c0.9-3.1,2.2-6.2,3.6-9
			c0.2-2.9,0.6-7.4,0.6-8.7c0-44.8-36.4-81.2-81.2-81.2c-37.9,0-69.9,26.2-78.8,61.4c11.7,14,18.7,32,18.7,51.6c0,0.4,0,0.9,0,1.3
			c18.7,14.9,31.4,37.2,33.6,62.4c6.6-2.6,13.7-4.2,20.8-4.7C260.5,176.2,267.2,165.9,276.9,159.1z"/>
		<path fill="#FBFBFB" d="M486.2,146.9c-3.8,0-7.5,0.4-11.1,1.3c-5.5-9.9-15.1-17-26.2-19.4c-0.9-29.7-25.3-53.6-55.2-53.6
			c-12.5,0-24.2,4.3-33.6,11.5c0.4,3.3,0.5,6.7,0.5,10.2c0,2.6-0.7,11.3-0.9,13c-0.1,0.4-0.1,0.8-0.2,1.3
			c6.8-11.9,19.6-19.9,34.1-19.9c21.6,0,39.2,17.6,39.2,39.2c0,1.5-0.1,3-0.3,4.6c-0.3,2.3,0.5,4.6,2,6.3c1.5,1.7,3.8,2.7,6,2.7
			l0.3,0c10.1,0,19.1,6.8,22,16.4c0.7,2.2,2.2,4,4.3,5c2.1,1,4.5,1,6.6,0.1c3.9-1.7,8.1-2.6,12.4-2.6c17.1,0,31,13.9,31,31
			c0,0.8-0.1,1.8-0.4,2.9H318.1c-2.5,3.1-5.1,6.1-7.6,9c2.4,2.2,4.6,4.5,6.7,7h205.7c3.4,0,6.4-2.1,7.5-5.3
			c0.3-0.8,2.8-7.8,2.8-13.6C533.2,168,512.1,146.9,486.2,146.9z"/>
		<path fill="#FBFBFB" d="M80.7,140.5H30c3.1-9.9,11.7-17.5,22.5-18.7c3.4-0.4,6.2-2.9,6.9-6.3c6.2-29.9,32.9-51.6,63.4-51.6
			c17.5,0,33.4,7,45.1,18.3c0.7-4.5,1.7-8.9,3-13.2c0.4-1.4,0.9-2.8,1.4-4.2c-13.7-10.6-30.8-17-49.4-17c-36.3,0-68.2,24.5-77.8,59
			c-18.7,4.8-32.3,21.7-32.3,41.6c0,4.4,3.6,8,8,8h48.5C72.5,150.7,76.4,145.3,80.7,140.5z"/>
		<path fill="#FBFBFB" d="M168,82.2c-0.7,4.8-1.1,9.7-1.1,14.7c0,2.6,0.7,11.3,0.9,12.9c0.1,1,0.3,1.9,0.4,2.9
			c5.9,1.4,11.6,3.3,17,5.8c-0.8-3.5-1.5-7.1-1.9-10.7c-0.1-0.4-0.2-1.7-0.3-3.3c-0.2-2.8-0.5-6.5-0.5-7.6c0-6.9,0.9-13.5,2.5-19.9
			c8.9-35.2,40.8-61.4,78.8-61.4c44.8,0,81.2,36.4,81.2,81.2c0,1.3-0.3,5.8-0.6,8.7c-0.1,1.1-0.2,1.9-0.2,2.3
			c-0.4,3.4-1,6.8-1.8,10.2c-1,4.4-2.3,8.8-3.8,13.1c-8.8,24.9-25.3,47.7-41.1,65.3c4.6,2.6,9,5.7,12.9,9.3c2.5-2.9,5.1-5.9,7.6-9
			c19-23.3,37.1-53.1,41.5-85.7c0.1-0.4,0.1-0.8,0.2-1.3c0.2-1.7,0.9-10.4,0.9-13c0-3.4-0.2-6.8-0.5-10.2C355,38.1,313.8,0,263.8,0
			c-42.2,0-78.2,27.1-91.4,64.8c-0.5,1.4-1,2.8-1.4,4.2C169.6,73.3,168.7,77.7,168,82.2z"/>
		<path fill="#FBFBFB" d="M310.5,205.8c-3.9-3.6-8.3-6.7-12.9-9.3c-7.1-4-14.9-6.8-23.2-8.1c-3.7-0.6-7.5-0.9-11.3-0.9
			c-1.7,0-3.3,0.1-5,0.2c-7.2,0.5-14.2,2.1-20.8,4.7c-2.2-25.2-14.8-47.5-33.6-62.4c-5.1-4.1-10.7-7.6-16.6-10.5
			c-0.6-0.3-1.2-0.6-1.8-0.9c-5.4-2.5-11.1-4.5-17-5.8c-6.6-1.5-13.4-2.4-20.4-2.4c-26.6,0-50.6,11.6-67,30.1
			c-4.4,4.9-8.2,10.3-11.4,16c-6.2,11.2-10.2,23.8-11.2,37.2c-13.8,2.8-26.6,9.6-36.7,19.5C9.7,224.7,2.1,240,0.1,256.4
			c-0.5,4.3,0.8,8.6,3.7,11.8c2.9,3.3,7,5.1,11.4,5.1h303.3c8.4,0,15.2-6.8,15.2-15.2c0-17.2-6.2-33-16.5-45.3
			C315.1,210.4,312.9,208,310.5,205.8z M317.7,257.3H16.1c3.6-25.7,24.7-46.1,50.6-48.8c4.1-0.4,7.2-3.9,7.2-8c0-0.1,0-0.3,0-0.4
			c0-16.3,5.4-31.4,14.4-43.6c4.5-6.1,10-11.5,16.1-16c12.2-8.8,27.1-14.1,43.3-14.1c8.6,0,16.8,1.5,24.4,4.2
			c7.7,2.7,14.8,6.6,21.1,11.6c2.7,2.2,5.3,4.5,7.8,7c9.3,9.7,16,22,18.9,35.6c1.1,5,1.6,10.2,1.6,15.5c0,1.4-0.1,2.9-0.2,4.6
			c-0.2,3,1.3,5.9,3.9,7.4c2.6,1.5,5.8,1.5,8.4-0.1c2.3-1.5,4.7-2.8,7.2-3.9c5.2-2.3,10.8-3.8,16.5-4.4c1.9-0.2,3.7-0.3,5.6-0.3
			c8.3,0,16.1,1.9,23.1,5.1c4.9,2.3,9.4,5.3,13.4,8.9C310.5,227.4,317.4,241.5,317.7,257.3z"/>
	</g>
</g>
<g id="Calque_5">
	<g>
		<g>
			<path fill="#FBFBFB" d="M19.1,322.7c-3.7,0-6.4-1-8.3-3c-1.9-2-2.8-4.8-2.8-8.5c0-3.7,1-6.6,3.1-8.6c2-2,4.9-3.1,8.7-3.1
				c2.6,0,5,0.6,7.3,1.7l-2.3,5.7c-0.9-0.4-1.8-0.7-2.6-1c-0.8-0.2-1.6-0.4-2.5-0.4c-1.2,0-2.2,0.5-2.9,1.5c-0.7,1-1,2.3-1,4.1
				c0,3.6,1.3,5.4,4,5.4c2.3,0,4.4-0.7,6.5-2v6.1C24.3,322,21.9,322.7,19.1,322.7z"/>
			<path fill="#FBFBFB" d="M44.2,299.5c0.7,0,1.3,0.1,1.9,0.2l0.4,0.1l-0.7,7.3c-0.6-0.2-1.5-0.2-2.6-0.2c-1.7,0-2.9,0.4-3.7,1.2
				c-0.8,0.8-1.1,1.9-1.1,3.3v11h-7.7v-22.3h5.7l1.2,3.6H38c0.6-1.2,1.5-2.1,2.7-2.9C41.9,299.9,43,299.5,44.2,299.5z"/>
			<path fill="#FBFBFB" d="M60.4,322.7c-3.7,0-6.6-1-8.7-3c-2.1-2-3.1-4.8-3.1-8.4c0-3.8,1-6.7,2.9-8.7c1.9-2,4.6-3,8.2-3
				c3.4,0,6,0.9,7.8,2.6c1.8,1.8,2.7,4.3,2.7,7.6v3.4H56.5c0.1,1.2,0.5,2.2,1.4,2.9c0.9,0.7,2,1.1,3.5,1.1c1.4,0,2.6-0.1,3.7-0.4
				c1.1-0.3,2.4-0.7,3.7-1.3v5.5c-1.2,0.6-2.5,1-3.7,1.3C63.7,322.5,62.2,322.7,60.4,322.7z M56.3,297.8v-0.6c2-2.2,3.3-3.6,3.9-4.2
				c0.5-0.6,1-1.2,1.3-1.7h8.4v0.4c-1.1,0.8-2.5,1.9-4.3,3.2c-1.8,1.3-3.2,2.2-4.2,2.8H56.3z M60,304.8c-0.9,0-1.7,0.3-2.3,0.9
				c-0.6,0.6-1,1.5-1.1,2.7h6.6c0-1.1-0.3-1.9-0.9-2.6C61.7,305.1,61,304.8,60,304.8z"/>
			<path fill="#FBFBFB" d="M85.4,322.7c-3.7,0-6.6-1-8.7-3c-2.1-2-3.1-4.8-3.1-8.4c0-3.8,1-6.7,2.9-8.7c1.9-2,4.6-3,8.2-3
				c3.4,0,6,0.9,7.8,2.6c1.8,1.8,2.7,4.3,2.7,7.6v3.4H81.4c0.1,1.2,0.5,2.2,1.4,2.9c0.9,0.7,2,1.1,3.5,1.1c1.4,0,2.6-0.1,3.7-0.4
				c1.1-0.3,2.4-0.7,3.7-1.3v5.5c-1.2,0.6-2.5,1-3.7,1.3C88.7,322.5,87.2,322.7,85.4,322.7z M84.9,304.8c-0.9,0-1.7,0.3-2.3,0.9
				c-0.6,0.6-1,1.5-1.1,2.7h6.6c0-1.1-0.3-1.9-0.9-2.6C86.7,305.1,85.9,304.8,84.9,304.8z"/>
			<path fill="#FBFBFB" d="M120.9,316.6c1,0,2.3-0.3,3.7-0.8v5.6c-1,0.4-2,0.8-3,1c-0.9,0.2-2,0.3-3.3,0.3c-2.6,0-4.5-0.6-5.6-1.9
				c-1.1-1.3-1.7-3.2-1.7-5.8v-9.2h-2.7v-3.1l3.4-2.4l2-4.7h5v4.5h5.5v5.8h-5.5v8.7C118.9,315.8,119.6,316.6,120.9,316.6z"/>
			<path fill="#FBFBFB" d="M149.9,311.1c0,3.7-1,6.5-2.9,8.5s-4.7,3.1-8.2,3.1c-3.4,0-6.1-1-8.1-3.1c-2-2.1-3-4.9-3-8.5
				c0-3.6,1-6.5,2.9-8.5c2-2,4.7-3,8.3-3c2.2,0,4.1,0.5,5.8,1.4c1.7,0.9,3,2.3,3.9,4C149.4,306.7,149.9,308.7,149.9,311.1z
				 M135.4,311.1c0,1.9,0.3,3.4,0.8,4.4c0.5,1,1.4,1.5,2.6,1.5c1.2,0,2-0.5,2.5-1.5c0.5-1,0.7-2.5,0.7-4.4c0-1.9-0.2-3.3-0.7-4.3
				c-0.5-1-1.4-1.5-2.6-1.5c-1.2,0-2,0.5-2.5,1.4C135.7,307.7,135.4,309.1,135.4,311.1z"/>
			<path fill="#FBFBFB" d="M168.4,322.3v-12.2c0-1.5-0.2-2.6-0.6-3.4c-0.4-0.8-1.1-1.1-2.1-1.1c-1.3,0-2.2,0.5-2.8,1.6
				c-0.6,1-0.9,2.8-0.9,5.3v9.8h-7.7v-22.3h5.8l1,2.8h0.5c0.7-1.1,1.6-1.8,2.7-2.4c1.2-0.5,2.5-0.8,4-0.8c2.5,0,4.4,0.7,5.8,2.1
				c1.4,1.4,2.1,3.4,2.1,6v14.5H168.4z"/>
			<path fill="#FBFBFB" d="M205.2,322.7c-1.1,0-2.1-0.2-3-0.6c-0.9-0.4-1.8-1-2.7-2h-0.4c0.2,1.6,0.4,2.5,0.4,2.9v9h-7.7v-32h6.3
				l1.1,2.8h0.4c1.4-2.2,3.4-3.2,5.9-3.2c2.5,0,4.4,1,5.8,3.1c1.4,2,2.1,4.9,2.1,8.4c0,3.6-0.7,6.4-2.2,8.5
				C209.7,321.6,207.7,322.7,205.2,322.7z M202.6,305.6c-1.1,0-1.9,0.4-2.4,1.2c-0.5,0.8-0.7,2-0.7,3.6v0.6c0,1.9,0.3,3.3,0.8,4.2
				c0.5,0.9,1.3,1.3,2.4,1.3c1,0,1.7-0.4,2.1-1.3c0.4-0.8,0.7-2.2,0.7-4.2c0-1.9-0.2-3.3-0.7-4.1C204.4,306,203.6,305.6,202.6,305.6
				z"/>
			<path fill="#FBFBFB" d="M231.2,299.5c0.7,0,1.3,0.1,1.9,0.2l0.4,0.1l-0.7,7.3c-0.6-0.2-1.5-0.2-2.6-0.2c-1.7,0-2.9,0.4-3.7,1.2
				c-0.8,0.8-1.1,1.9-1.1,3.3v11h-7.7v-22.3h5.7l1.2,3.6h0.4c0.6-1.2,1.5-2.1,2.7-2.9C228.9,299.9,230.1,299.5,231.2,299.5z"/>
			<path fill="#FBFBFB" d="M247.5,322.7c-3.7,0-6.6-1-8.7-3c-2.1-2-3.1-4.8-3.1-8.4c0-3.8,1-6.7,2.9-8.7c1.9-2,4.6-3,8.2-3
				c3.4,0,6,0.9,7.8,2.6c1.8,1.8,2.7,4.3,2.7,7.6v3.4h-13.8c0.1,1.2,0.5,2.2,1.4,2.9c0.9,0.7,2,1.1,3.5,1.1c1.4,0,2.6-0.1,3.7-0.4
				s2.4-0.7,3.7-1.3v5.5c-1.2,0.6-2.5,1-3.7,1.3C250.8,322.5,249.2,322.7,247.5,322.7z M247,304.8c-0.9,0-1.7,0.3-2.3,0.9
				c-0.6,0.6-1,1.5-1.1,2.7h6.6c0-1.1-0.3-1.9-0.9-2.6C248.8,305.1,248,304.8,247,304.8z"/>
			<path fill="#FBFBFB" d="M289,322.3v-12.1c0-1.5-0.2-2.6-0.6-3.4c-0.4-0.8-1.1-1.1-2-1.1c-1.2,0-2.1,0.5-2.6,1.5
				c-0.6,1-0.8,2.6-0.8,4.7v10.4h-7.7v-12.1c0-1.5-0.2-2.6-0.6-3.4c-0.4-0.8-1-1.1-1.9-1.1c-1.2,0-2.1,0.5-2.6,1.6
				c-0.6,1.1-0.8,2.8-0.8,5.3v9.8h-7.7v-22.3h5.8l1,2.8h0.5c0.6-1,1.4-1.8,2.6-2.3c1.1-0.5,2.4-0.8,3.8-0.8c3.2,0,5.5,1,6.8,2.9h0.6
				c0.6-0.9,1.5-1.6,2.6-2.2c1.1-0.5,2.4-0.8,3.7-0.8c2.6,0,4.6,0.7,5.9,2c1.3,1.4,1.9,3.4,1.9,6.2v14.5H289z"/>
			<path fill="#FBFBFB" d="M301.8,294.4c0-1.2,0.3-2,1-2.6c0.6-0.6,1.7-0.8,3.1-0.8c1.4,0,2.5,0.3,3.1,0.9c0.7,0.6,1,1.4,1,2.6
				c0,2.3-1.4,3.4-4.1,3.4C303.2,297.8,301.8,296.6,301.8,294.4z M309.7,322.3H302v-22.3h7.7V322.3z"/>
			<path fill="#FBFBFB" d="M325.9,322.7c-3.7,0-6.6-1-8.7-3c-2.1-2-3.1-4.8-3.1-8.4c0-3.8,1-6.7,2.9-8.7c1.9-2,4.6-3,8.2-3
				c3.4,0,6,0.9,7.8,2.6c1.8,1.8,2.7,4.3,2.7,7.6v3.4h-13.8c0.1,1.2,0.5,2.2,1.4,2.9c0.9,0.7,2,1.1,3.5,1.1c1.4,0,2.6-0.1,3.7-0.4
				c1.1-0.3,2.4-0.7,3.7-1.3v5.5c-1.2,0.6-2.5,1-3.7,1.3C329.2,322.5,327.7,322.7,325.9,322.7z M325.4,304.8c-0.9,0-1.7,0.3-2.3,0.9
				c-0.6,0.6-1,1.5-1.1,2.7h6.6c0-1.1-0.3-1.9-0.9-2.6C327.2,305.1,326.4,304.8,325.4,304.8z"/>
			<path fill="#FBFBFB" d="M353.5,299.5c0.7,0,1.3,0.1,1.9,0.2l0.4,0.1l-0.7,7.3c-0.6-0.2-1.5-0.2-2.6-0.2c-1.7,0-2.9,0.4-3.7,1.2
				c-0.8,0.8-1.1,1.9-1.1,3.3v11H340v-22.3h5.7l1.2,3.6h0.4c0.6-1.2,1.5-2.1,2.7-2.9C351.2,299.9,352.3,299.5,353.5,299.5z"/>
			<path fill="#FBFBFB" d="M384,322.3l-1.5-3h-0.2c-1,1.3-2.1,2.2-3.2,2.6c-1.1,0.5-2.5,0.7-4.2,0.7c-2.1,0-3.8-0.6-5-1.9
				c-1.2-1.3-1.8-3-1.8-5.3c0-2.4,0.8-4.1,2.5-5.3c1.7-1.2,4.1-1.8,7.2-2l3.7-0.1v-0.3c0-1.8-0.9-2.8-2.7-2.8
				c-1.6,0-3.7,0.6-6.2,1.7l-2.2-5.1c2.6-1.3,5.9-2,9.9-2c2.9,0,5.1,0.7,6.6,2.1c1.6,1.4,2.4,3.4,2.4,6v14.6H384z M378.3,317.2
				c0.9,0,1.7-0.3,2.4-0.9c0.7-0.6,1-1.4,1-2.3v-1.7l-1.8,0.1c-2.5,0.1-3.8,1-3.8,2.8C376.1,316.5,376.8,317.2,378.3,317.2z"/>
			<path fill="#FBFBFB" d="M405.5,316.6c1,0,2.3-0.3,3.7-0.8v5.6c-1,0.4-2,0.8-3,1c-0.9,0.2-2,0.3-3.3,0.3c-2.6,0-4.5-0.6-5.6-1.9
				c-1.1-1.3-1.7-3.2-1.7-5.8v-9.2H393v-3.1l3.4-2.4l2-4.7h5v4.5h5.5v5.8h-5.5v8.7C403.4,315.8,404.1,316.6,405.5,316.6z"/>
			<path fill="#FBFBFB" d="M423.9,322.7c-3.7,0-6.6-1-8.7-3c-2.1-2-3.1-4.8-3.1-8.4c0-3.8,1-6.7,2.9-8.7c1.9-2,4.6-3,8.2-3
				c3.4,0,6,0.9,7.8,2.6c1.8,1.8,2.7,4.3,2.7,7.6v3.4H420c0.1,1.2,0.5,2.2,1.4,2.9c0.9,0.7,2,1.1,3.5,1.1c1.4,0,2.6-0.1,3.7-0.4
				c1.1-0.3,2.4-0.7,3.7-1.3v5.5c-1.2,0.6-2.5,1-3.7,1.3C427.2,322.5,425.7,322.7,423.9,322.7z M423.5,304.8c-0.9,0-1.7,0.3-2.3,0.9
				c-0.6,0.6-1,1.5-1.1,2.7h6.6c0-1.1-0.3-1.9-0.9-2.6C425.2,305.1,424.5,304.8,423.5,304.8z"/>
			<path fill="#FBFBFB" d="M445.8,322.3h-7.7v-30.7h7.7V322.3z"/>
			<path fill="#FBFBFB" d="M451,294.4c0-1.2,0.3-2,1-2.6c0.6-0.6,1.7-0.8,3.1-0.8s2.5,0.3,3.1,0.9c0.7,0.6,1,1.4,1,2.6
				c0,2.3-1.4,3.4-4.1,3.4C452.3,297.8,451,296.6,451,294.4z M458.9,322.3h-7.7v-22.3h7.7V322.3z"/>
			<path fill="#FBFBFB" d="M475,322.7c-3.7,0-6.6-1-8.7-3c-2.1-2-3.1-4.8-3.1-8.4c0-3.8,1-6.7,2.9-8.7c1.9-2,4.6-3,8.2-3
				c3.4,0,6,0.9,7.8,2.6c1.8,1.8,2.7,4.3,2.7,7.6v3.4h-13.8c0.1,1.2,0.5,2.2,1.4,2.9c0.9,0.7,2,1.1,3.5,1.1c1.4,0,2.6-0.1,3.7-0.4
				c1.1-0.3,2.4-0.7,3.7-1.3v5.5c-1.2,0.6-2.5,1-3.7,1.3C478.4,322.5,476.8,322.7,475,322.7z M474.6,304.8c-0.9,0-1.7,0.3-2.3,0.9
				c-0.6,0.6-1,1.5-1.1,2.7h6.6c0-1.1-0.3-1.9-0.9-2.6C476.3,305.1,475.6,304.8,474.6,304.8z"/>
			<path fill="#FBFBFB" d="M502.7,299.5c0.7,0,1.3,0.1,1.9,0.2l0.4,0.1l-0.7,7.3c-0.6-0.2-1.5-0.2-2.6-0.2c-1.7,0-2.9,0.4-3.7,1.2
				c-0.8,0.8-1.1,1.9-1.1,3.3v11h-7.7v-22.3h5.7l1.2,3.6h0.4c0.6-1.2,1.5-2.1,2.7-2.9C500.3,299.9,501.5,299.5,502.7,299.5z"/>
			<path fill="#FBFBFB" d="M525.1,312.1h-6.5l-1-18.6h8.5L525.1,312.1z M517.6,319c0-1.2,0.4-2.1,1.1-2.8c0.7-0.7,1.7-1,3.1-1
				c1.3,0,2.4,0.3,3,1c0.7,0.7,1,1.6,1,2.8c0,1.2-0.4,2.1-1.1,2.8c-0.7,0.7-1.7,1-3,1c-1.3,0-2.3-0.3-3.1-1
				C518,321.1,517.6,320.2,517.6,319z"/>
		</g>
	</g>
</g>
</svg>
