<?xml version="1.0" encoding="utf-8"?>
<!-- Generator: Adobe Illustrator 17.1.0, SVG Export Plug-In . SVG Version: 6.00 Build 0)  -->
<!DOCTYPE svg PUBLIC "-//W3C//DTD SVG 1.1//EN" "http://www.w3.org/Graphics/SVG/1.1/DTD/svg11.dtd">
<svg version="1.1" xmlns="http://www.w3.org/2000/svg" xmlns:xlink="http://www.w3.org/1999/xlink" x="0px" y="0px"
	 viewBox="0 0 675.9 367.8" enable-background="new 0 0 675.9 367.8" xml:space="preserve">
<symbol  id="Nouveau_symbole_1" viewBox="-16 -16 32 32">
	<path fill="#5A606C" d="M11.5,4.5h-7v7C4.5,14,2.5,16,0,16s-4.5-2-4.5-4.5v-7h-7C-14,4.5-16,2.5-16,0s2-4.5,4.5-4.5h7v-7
		c0-2.5,2-4.5,4.5-4.5s4.5,2,4.5,4.5v7h7C14-4.5,16-2.5,16,0S14,4.5,11.5,4.5z"/>
</symbol>
<g id="Calque_2" display="none">
	<radialGradient id="SVGID_1_" cx="-975.0831" cy="159.3315" r="625.8069" gradientUnits="userSpaceOnUse">
		<stop  offset="0" style="stop-color:#495563"/>
		<stop  offset="0.7539" style="stop-color:#29323C"/>
	</radialGradient>
	<rect x="-1354.3" y="-194.8" display="inline" fill="url(#SVGID_1_)" width="764.6" height="764.6"/>
</g>
<g id="Calque_4" display="none">
</g>
<g id="Calque_8" display="none">
	
		<use xlink:href="#Nouveau_symbole_1"  width="32" height="32" x="-16" y="-16" transform="matrix(1 0 0 -1 -207.4855 -137.1189)" display="inline" overflow="visible"/>
	
		<line display="inline" opacity="0.2" fill="none" stroke="#FBFBFB" stroke-width="9" stroke-linecap="round" stroke-miterlimit="10" x1="-153.3" y1="-55.5" x2="-153.3" y2="-32.5"/>
	
		<line display="inline" opacity="0.2" fill="none" stroke="#FBFBFB" stroke-width="9" stroke-linecap="round" stroke-miterlimit="10" x1="-164.8" y1="-44" x2="-141.8" y2="-44"/>
</g>
<g id="Calque_1" display="none">
	<g display="inline">
		<g>
			<defs>
				<path id="SVGID_2_" d="M-905.1,95.8c0-36.9-29.9-66.9-66.9-66.9s-66.9,29.9-66.9,66.9c0,1.6,0.5,7.9,0.6,9
					c6.5,53.1,66.3,97.8,66.3,97.8s59.7-44.8,66.3-97.8C-905.6,103.7-905.1,97.4-905.1,95.8z"/>
			</defs>
			<clipPath id="SVGID_3_">
				<use xlink:href="#SVGID_2_"  overflow="visible"/>
			</clipPath>
			<g clip-path="url(#SVGID_3_)">
				<defs>
					<path id="SVGID_4_" d="M-869.4,167.6c0-8.4-3.5-16-9.1-21.5c-0.2-0.2-0.5-0.5-0.7-0.7c-0.2-0.2-0.5-0.5-0.7-0.7
						c-0.2-0.2-0.5-0.5-0.7-0.7c-0.2-0.2-0.5-0.5-0.7-0.7c-0.2-0.2-0.5-0.5-0.7-0.7c-0.2-0.2-0.5-0.5-0.7-0.7
						c-0.2-0.2-0.5-0.5-0.7-0.7c-0.2-0.2-0.5-0.5-0.7-0.7c-0.2-0.2-0.5-0.5-0.7-0.7c-0.2-0.2-0.5-0.5-0.7-0.7
						c-0.2-0.2-0.5-0.5-0.7-0.7c-0.2-0.2-0.5-0.5-0.7-0.7c-0.2-0.2-0.5-0.5-0.7-0.7c-0.2-0.2-0.5-0.5-0.7-0.7
						c-0.2-0.2-0.5-0.5-0.7-0.7c-0.2-0.2-0.5-0.5-0.7-0.7c-0.2-0.2-0.5-0.5-0.7-0.7c-0.2-0.2-0.5-0.5-0.7-0.7
						c-0.2-0.2-0.5-0.5-0.7-0.7c-0.2-0.2-0.5-0.5-0.7-0.7c-0.2-0.2-0.5-0.5-0.7-0.7c-0.2-0.2-0.5-0.5-0.7-0.7
						c-0.2-0.2-0.5-0.5-0.7-0.7c-0.2-0.2-0.5-0.5-0.7-0.7c-0.2-0.2-0.5-0.5-0.7-0.7c-0.2-0.2-0.5-0.5-0.7-0.7
						c-0.2-0.2-0.5-0.5-0.7-0.7c-0.2-0.2-0.5-0.5-0.7-0.7c-0.2-0.2-0.5-0.5-0.7-0.7c-0.2-0.2-0.5-0.5-0.7-0.7
						c-0.2-0.2-0.5-0.5-0.7-0.7c-0.2-0.2-0.5-0.5-0.7-0.7c-0.2-0.2-0.5-0.5-0.7-0.7c-0.2-0.2-0.5-0.5-0.7-0.7
						c-0.2-0.2-0.5-0.5-0.7-0.7c-0.2-0.2-0.5-0.5-0.7-0.7c-0.2-0.2-0.5-0.5-0.7-0.7c-0.2-0.2-0.5-0.5-0.7-0.7
						c-0.2-0.2-0.5-0.5-0.7-0.7c-0.2-0.2-0.5-0.5-0.7-0.7c-0.2-0.2-0.5-0.5-0.7-0.7c-0.2-0.2-0.5-0.5-0.7-0.7
						c-0.2-0.2-0.5-0.5-0.7-0.7c-0.2-0.2-0.5-0.5-0.7-0.7c-0.2-0.2-0.5-0.5-0.7-0.7c-0.2-0.2-0.5-0.5-0.7-0.7
						c-0.2-0.2-0.5-0.5-0.7-0.7c-0.2-0.2-0.5-0.5-0.7-0.7c-0.2-0.2-0.5-0.5-0.7-0.7c-0.2-0.2-0.5-0.5-0.7-0.7
						c-0.2-0.2-0.5-0.5-0.7-0.7c-0.2-0.2-0.5-0.5-0.7-0.7c-0.2-0.2-0.5-0.5-0.7-0.7c-0.2-0.2-0.5-0.5-0.7-0.7
						c-0.2-0.2-0.5-0.5-0.7-0.7c-0.2-0.2-0.5-0.5-0.7-0.7c-0.2-0.2-0.5-0.5-0.7-0.7c-0.2-0.2-0.5-0.5-0.7-0.7
						c-0.2-0.2-0.5-0.5-0.7-0.7c-0.2-0.2-0.5-0.5-0.7-0.7c-0.2-0.2-0.5-0.5-0.7-0.7c-0.2-0.2-0.5-0.5-0.7-0.7
						c-0.2-0.2-0.5-0.5-0.7-0.7c-0.2-0.2-0.5-0.5-0.7-0.7c-0.2-0.2-0.5-0.5-0.7-0.7c-0.2-0.2-0.5-0.5-0.7-0.7
						c-0.2-0.2-0.5-0.5-0.7-0.7c-0.2-0.2-0.5-0.5-0.7-0.7c-0.2-0.2-0.5-0.5-0.7-0.7c-0.2-0.2-0.5-0.5-0.7-0.7
						c-0.2-0.2-0.5-0.5-0.7-0.7c-0.2-0.2-0.5-0.5-0.7-0.7c-0.2-0.2-0.5-0.5-0.7-0.7c-0.2-0.2-0.5-0.5-0.7-0.7
						c-0.2-0.2-0.5-0.5-0.7-0.7c-0.2-0.2-0.5-0.5-0.7-0.7c-0.2-0.2-0.5-0.5-0.7-0.7c-0.2-0.2-0.5-0.5-0.7-0.7
						c-0.2-0.2-0.5-0.5-0.7-0.7c-0.2-0.2-0.5-0.5-0.7-0.7c-0.2-0.2-0.5-0.5-0.7-0.7c-0.2-0.2-0.5-0.5-0.7-0.7
						c-0.2-0.2-0.5-0.5-0.7-0.7c-0.2-0.2-0.5-0.5-0.7-0.7c-0.2-0.2-0.5-0.5-0.7-0.7c-0.2-0.2-0.5-0.5-0.7-0.7
						c-0.2-0.2-0.5-0.5-0.7-0.7c-0.2-0.2-0.5-0.5-0.7-0.7c-0.2-0.2-0.5-0.5-0.7-0.7c-0.2-0.2-0.5-0.5-0.7-0.7
						c-0.2-0.2-0.5-0.5-0.7-0.7c-0.2-0.2-0.5-0.5-0.7-0.7c-0.2-0.2-0.5-0.5-0.7-0.7c-0.2-0.2-0.5-0.5-0.7-0.7
						c-0.2-0.2-0.5-0.5-0.7-0.7c-0.2-0.2-0.5-0.5-0.7-0.7c-0.2-0.2-0.5-0.5-0.7-0.7c-0.2-0.2-0.5-0.5-0.7-0.7
						c-0.2-0.2-0.5-0.5-0.7-0.7c-0.2-0.2-0.5-0.5-0.7-0.7c-5.4-5.6-13-9.1-21.4-9.1c-16.5,0-29.9,13.4-29.9,29.9
						c0,21,8.5,41.1,23.3,55.9c0.2,0.2,0.5,0.5,0.7,0.7c0.2,0.2,0.5,0.5,0.7,0.7c0.2,0.2,0.5,0.5,0.7,0.7c0.2,0.2,0.5,0.5,0.7,0.7
						c0.2,0.2,0.5,0.5,0.7,0.7c0.2,0.2,0.5,0.5,0.7,0.7c0.2,0.2,0.5,0.5,0.7,0.7c0.2,0.2,0.5,0.5,0.7,0.7c0.2,0.2,0.5,0.5,0.7,0.7
						c0.2,0.2,0.5,0.5,0.7,0.7c0.2,0.2,0.5,0.5,0.7,0.7c0.2,0.2,0.5,0.5,0.7,0.7c0.2,0.2,0.5,0.5,0.7,0.7c0.2,0.2,0.5,0.5,0.7,0.7
						c0.2,0.2,0.5,0.5,0.7,0.7c0.2,0.2,0.5,0.5,0.7,0.7c0.2,0.2,0.5,0.5,0.7,0.7c0.2,0.2,0.5,0.5,0.7,0.7c0.2,0.2,0.5,0.5,0.7,0.7
						c0.2,0.2,0.5,0.5,0.7,0.7c0.2,0.2,0.5,0.5,0.7,0.7c0.2,0.2,0.5,0.5,0.7,0.7c0.2,0.2,0.5,0.5,0.7,0.7c0.2,0.2,0.5,0.5,0.7,0.7
						c0.2,0.2,0.5,0.5,0.7,0.7c0.2,0.2,0.5,0.5,0.7,0.7c0.2,0.2,0.5,0.5,0.7,0.7c0.2,0.2,0.5,0.5,0.7,0.7c0.2,0.2,0.5,0.5,0.7,0.7
						c0.2,0.2,0.5,0.5,0.7,0.7c0.2,0.2,0.5,0.5,0.7,0.7c0.2,0.2,0.5,0.5,0.7,0.7c0.2,0.2,0.5,0.5,0.7,0.7c0.2,0.2,0.5,0.5,0.7,0.7
						c0.2,0.2,0.5,0.5,0.7,0.7c0.2,0.2,0.5,0.5,0.7,0.7c0.2,0.2,0.5,0.5,0.7,0.7c0.2,0.2,0.5,0.5,0.7,0.7c0.2,0.2,0.5,0.5,0.7,0.7
						c0.2,0.2,0.5,0.5,0.7,0.7c0.2,0.2,0.5,0.5,0.7,0.7c0.2,0.2,0.5,0.5,0.7,0.7c0.2,0.2,0.5,0.5,0.7,0.7c0.2,0.2,0.5,0.5,0.7,0.7
						c0.2,0.2,0.5,0.5,0.7,0.7c0.2,0.2,0.5,0.5,0.7,0.7c0.2,0.2,0.5,0.5,0.7,0.7c0.2,0.2,0.5,0.5,0.7,0.7c0.2,0.2,0.5,0.5,0.7,0.7
						c0.2,0.2,0.5,0.5,0.7,0.7c0.2,0.2,0.5,0.5,0.7,0.7c0.2,0.2,0.5,0.5,0.7,0.7c0.2,0.2,0.5,0.5,0.7,0.7c0.2,0.2,0.5,0.5,0.7,0.7
						c0.2,0.2,0.5,0.5,0.7,0.7c0.2,0.2,0.5,0.5,0.7,0.7c0.2,0.2,0.5,0.5,0.7,0.7c0.2,0.2,0.5,0.5,0.7,0.7c0.2,0.2,0.5,0.5,0.7,0.7
						c0.2,0.2,0.5,0.5,0.7,0.7c0.2,0.2,0.5,0.5,0.7,0.7c0.2,0.2,0.5,0.5,0.7,0.7c0.2,0.2,0.5,0.5,0.7,0.7c0.2,0.2,0.5,0.5,0.7,0.7
						c0.2,0.2,0.5,0.5,0.7,0.7c0.2,0.2,0.5,0.5,0.7,0.7c0.2,0.2,0.5,0.5,0.7,0.7c0.2,0.2,0.5,0.5,0.7,0.7c0.2,0.2,0.5,0.5,0.7,0.7
						c0.2,0.2,0.5,0.5,0.7,0.7c0.2,0.2,0.5,0.5,0.7,0.7c0.2,0.2,0.5,0.5,0.7,0.7c0.2,0.2,0.5,0.5,0.7,0.7c0.2,0.2,0.5,0.5,0.7,0.7
						c0.2,0.2,0.5,0.5,0.7,0.7c0.2,0.2,0.5,0.5,0.7,0.7c0.2,0.2,0.5,0.5,0.7,0.7c0.2,0.2,0.5,0.5,0.7,0.7c0.2,0.2,0.5,0.5,0.7,0.7
						c0.2,0.2,0.5,0.5,0.7,0.7c0.2,0.2,0.5,0.5,0.7,0.7c0.2,0.2,0.5,0.5,0.7,0.7c0.2,0.2,0.5,0.5,0.7,0.7c0.2,0.2,0.5,0.5,0.7,0.7
						c0.2,0.2,0.5,0.5,0.7,0.7c0.2,0.2,0.5,0.5,0.7,0.7c0.2,0.2,0.5,0.5,0.7,0.7c0.2,0.2,0.5,0.5,0.7,0.7c0.2,0.2,0.5,0.5,0.7,0.7
						c0.2,0.2,0.5,0.5,0.7,0.7c0.2,0.2,0.5,0.5,0.7,0.7c0.2,0.2,0.5,0.5,0.7,0.7c0.2,0.2,0.5,0.5,0.7,0.7c0.2,0.2,0.5,0.5,0.7,0.7
						c0.2,0.2,0.5,0.5,0.7,0.7c0.2,0.2,0.5,0.5,0.7,0.7c0.2,0.2,0.5,0.5,0.7,0.7c0.2,0.2,0.5,0.5,0.7,0.7c0.2,0.2,0.5,0.5,0.7,0.7
						c0.2,0.2,0.5,0.5,0.7,0.7c1.1,1.1,2.2,2.2,3.3,3.2c1.1,1,2.5,1.5,3.9,1.5c1.6,0,3.2-0.7,4.4-1.9c2.2-2.4,2-6.1-0.4-8.3
						c-7-6.3-12.5-14-16.2-22.4c3.8,1.7,7.9,2.7,12.3,2.7C-882.8,197.4-869.4,184-869.4,167.6z"/>
				</defs>
				<linearGradient id="SVGID_5_" gradientUnits="userSpaceOnUse" x1="-993.7801" y1="83.1578" x2="-927.6108" y2="149.327">
					<stop  offset="1.102941e-002" style="stop-color:#FBFBFB;stop-opacity:0.1"/>
					<stop  offset="1" style="stop-color:#FBFBFB;stop-opacity:0"/>
				</linearGradient>
				<use xlink:href="#SVGID_4_"  overflow="visible" fill="url(#SVGID_5_)"/>
				<clipPath id="SVGID_6_">
					<use xlink:href="#SVGID_4_"  overflow="visible"/>
				</clipPath>
				<linearGradient id="SVGID_7_" gradientUnits="userSpaceOnUse" x1="-992.8394" y1="82.2172" x2="-926.6702" y2="148.3864">
					<stop  offset="1.102941e-002" style="stop-color:#FBFBFB;stop-opacity:0.1"/>
					<stop  offset="1" style="stop-color:#FBFBFB;stop-opacity:0"/>
				</linearGradient>
				<path clip-path="url(#SVGID_6_)" fill="url(#SVGID_7_)" d="M-905.1,95.8c0-36.9-29.9-66.9-66.9-66.9s-66.9,29.9-66.9,66.9
					c0,1.6,0.5,7.9,0.6,9c6.5,53.1,66.3,97.8,66.3,97.8s59.7-44.8,66.3-97.8C-905.6,103.7-905.1,97.4-905.1,95.8z"/>
			</g>
		</g>
		<g>
			<linearGradient id="SVGID_8_" gradientUnits="userSpaceOnUse" x1="-1024.1143" y1="51.006" x2="-918.9702" y2="156.1501">
				<stop  offset="1.102941e-002" style="stop-color:#838AB6"/>
				<stop  offset="0.2245" style="stop-color:#7DA2C1"/>
				<stop  offset="0.4347" style="stop-color:#78B2C7"/>
				<stop  offset="0.6375" style="stop-color:#73BDC9"/>
				<stop  offset="0.8297" style="stop-color:#71C3CB"/>
				<stop  offset="1" style="stop-color:#70C5CB"/>
			</linearGradient>
			<path fill="url(#SVGID_8_)" d="M-972,208.5c-1.2,0-2.5-0.4-3.5-1.2c-2.5-1.9-61.8-46.9-68.6-101.8c-0.2-1.2-0.7-7.8-0.7-9.7
				c0-40.1,32.6-72.8,72.8-72.8c40.1,0,72.8,32.6,72.8,72.8c0,1.9-0.5,8.5-0.7,9.7c-6.8,54.9-66.1,99.9-68.6,101.8
				C-969.6,208.1-970.8,208.5-972,208.5z M-972,34.8c-33.6,0-61,27.4-61,61c0,1.3,0.5,7.3,0.6,8.2c5.3,42.7,47.8,80.7,60.4,91.1
				c12.6-10.4,55.2-48.4,60.4-91c0.1-0.9,0.6-6.9,0.6-8.3C-911,62.1-938.4,34.8-972,34.8z"/>
		</g>
		<g>
			<linearGradient id="SVGID_9_" gradientUnits="userSpaceOnUse" x1="-1025.0203" y1="51.9111" x2="-919.8762" y2="157.0552">
				<stop  offset="1.102941e-002" style="stop-color:#838AB6"/>
				<stop  offset="0.2245" style="stop-color:#7DA2C1"/>
				<stop  offset="0.4347" style="stop-color:#78B2C7"/>
				<stop  offset="0.6375" style="stop-color:#73BDC9"/>
				<stop  offset="0.8297" style="stop-color:#71C3CB"/>
				<stop  offset="1" style="stop-color:#70C5CB"/>
			</linearGradient>
			<path fill="url(#SVGID_9_)" d="M-972,64.9c-16.5,0-29.9,13.4-29.9,29.9c0,22.2,9.4,43.4,25.9,58.3c1.1,1,2.5,1.5,3.9,1.5
				c1.6,0,3.2-0.7,4.4-1.9c2.2-2.4,2-6.1-0.4-8.3c-7-6.3-12.5-14-16.2-22.4c3.8,1.7,7.9,2.7,12.3,2.7c16.5,0,29.9-13.4,29.9-29.9
				S-955.6,64.9-972,64.9z M-972,112.9c-10,0-18.1-8.1-18.1-18.1c0-10,8.1-18.1,18.1-18.1s18.1,8.1,18.1,18.1
				C-953.9,104.8-962.1,112.9-972,112.9z"/>
		</g>
	</g>
</g>
<g id="Calque_3" display="none">
	
		<image display="inline" overflow="visible" width="400" height="300" xlink:href="8444A956.jpg"  transform="matrix(1 0 0 1 932.9712 -402.1056)">
	</image>
	<g display="inline">
		<g>
			<path fill="none" stroke="#5BB6CE" stroke-width="9" stroke-linecap="round" stroke-miterlimit="10" d="M-1071.6,259.2
				c5-6.9,13.1-11.4,22.2-11.4c7.5,0,14.2,3,19.2,7.8"/>
			<path fill="none" stroke="#5BB6CE" stroke-width="9" stroke-linecap="round" stroke-miterlimit="10" d="M-988.9,190.5
				c0.8,3.7,1.2,7.5,1.2,11.4c0,26.1-18.1,48-42.5,53.8"/>
			<path fill="none" stroke="#5BB6CE" stroke-width="9" stroke-linecap="round" stroke-miterlimit="10" d="M-1147,293.1
				c0-25,20.3-45.3,45.3-45.3c19.3,0,35.7,12,42.3,29"/>
			<path fill="none" stroke="#5BB6CE" stroke-width="9" stroke-linecap="round" stroke-miterlimit="10" d="M-1124.1,293.1
				c0-12.4,10-22.4,22.4-22.4"/>
			<path fill="none" stroke="#5BB6CE" stroke-width="9" stroke-linecap="round" stroke-miterlimit="10" d="M-1251.1,322.2
				c5.2-34.4,35-60.8,70.8-60.8c14.1,0,27.2,4,38.2,11"/>
			<path fill="none" stroke="#5BB6CE" stroke-width="9" stroke-linecap="round" stroke-miterlimit="10" d="M-1278,366
				c0-25.8,20.9-46.7,46.7-46.7c25.8,0,46.7,20.9,46.7,46.7"/>
			<path fill="none" stroke="#5BB6CE" stroke-width="9" stroke-linecap="round" stroke-miterlimit="10" d="M-1253.3,366
				c0-12.2,9.9-22,22-22"/>
			<path fill="none" stroke="#5BB6CE" stroke-width="9" stroke-linecap="round" stroke-miterlimit="10" d="M-1247.3,381.1
				c-0.9-1-1.7-2-2.4-3.1"/>
			<path fill="none" stroke="#5BB6CE" stroke-width="9" stroke-linecap="round" stroke-miterlimit="10" d="M-1305.5,366.5
				c4.1-2.8,9-4.4,14.3-4.4c4.9,0,9.4,1.4,13.3,3.8"/>
		</g>
		<g>
			<path fill="none" stroke="#5BB6CE" stroke-width="9" stroke-linecap="round" stroke-miterlimit="10" d="M-872.5,259.2
				c-5-6.9-13.1-11.4-22.2-11.4c-7.5,0-14.2,3-19.2,7.8"/>
			<path fill="none" stroke="#5BB6CE" stroke-width="9" stroke-linecap="round" stroke-miterlimit="10" d="M-955.2,190.5
				c-0.8,3.7-1.2,7.5-1.2,11.4c0,26.1,18.1,48,42.5,53.8"/>
			<path fill="none" stroke="#5BB6CE" stroke-width="9" stroke-linecap="round" stroke-miterlimit="10" d="M-797.1,293.1
				c0-25-20.3-45.3-45.3-45.3c-19.3,0-35.7,12-42.3,29"/>
			<path fill="none" stroke="#5BB6CE" stroke-width="9" stroke-linecap="round" stroke-miterlimit="10" d="M-820,293.1
				c0-12.4-10-22.4-22.4-22.4"/>
			<path fill="none" stroke="#5BB6CE" stroke-width="9" stroke-linecap="round" stroke-miterlimit="10" d="M-693,322.2
				c-5.2-34.4-35-60.8-70.8-60.8c-14.1,0-27.2,4-38.2,11"/>
			<path fill="none" stroke="#5BB6CE" stroke-width="9" stroke-linecap="round" stroke-miterlimit="10" d="M-666.1,366
				c0-25.8-20.9-46.7-46.7-46.7c-25.8,0-46.7,20.9-46.7,46.7"/>
			<path fill="none" stroke="#5BB6CE" stroke-width="9" stroke-linecap="round" stroke-miterlimit="10" d="M-690.8,366
				c0-12.2-9.9-22-22-22"/>
			<path fill="none" stroke="#5BB6CE" stroke-width="9" stroke-linecap="round" stroke-miterlimit="10" d="M-696.8,381.1
				c0.9-1,1.7-2,2.4-3.1"/>
			<path fill="none" stroke="#5BB6CE" stroke-width="9" stroke-linecap="round" stroke-miterlimit="10" d="M-638.6,366.5
				c-4.1-2.8-9-4.4-14.3-4.4c-4.9,0-9.4,1.4-13.3,3.8"/>
		</g>
		<path fill="none" stroke="#5BB6CE" stroke-width="9" stroke-linecap="round" stroke-miterlimit="10" d="M-1108.2,386.3
			c0-26.1,19.3-47.8,44.5-51.4"/>
		<path fill="none" stroke="#5BB6CE" stroke-width="9" stroke-linecap="round" stroke-miterlimit="10" d="M-941.3,342.6
			c18,0,32.5,14.6,32.5,32.5c0,3.9-0.7,7.7-2,11.2"/>
		<path fill="none" stroke="#5BB6CE" stroke-width="9" stroke-linecap="round" stroke-miterlimit="10" d="M-962.3,297.2
			c6-1.8,12.4-2.8,19-2.8c24.8,0,46.4,13.7,57.7,34"/>
		<path fill="none" stroke="#5BB6CE" stroke-width="9" stroke-linecap="round" stroke-miterlimit="10" d="M-883,328.5
			c6.3-2,13.1-3.1,20.1-3.1c34.7,0,63.2,26.9,65.7,61"/>
		<path fill="none" stroke="#5BB6CE" stroke-width="9" stroke-linecap="round" stroke-miterlimit="10" d="M-1063.7,335
			c3.7-30.1,29.4-53.4,60.6-53.4c33.7,0,61,27.3,61,61"/>
		<path fill="none" stroke="#5BB6CE" stroke-width="9" stroke-linecap="round" stroke-miterlimit="10" d="M-1041,342.6
			c0-20.9,16.9-37.8,37.8-37.8"/>
	</g>
	<g id="Nouveau_symbole">
	</g>
</g>
<g id="Calque_5">
	<g>
		<g>
			<defs>
				<path id="SVGID_10_" d="M404.9,72.8c0-36.9-29.9-66.9-66.9-66.9s-66.9,29.9-66.9,66.9c0,1.6,0.5,7.9,0.6,9
					c6.5,53.1,66.3,97.8,66.3,97.8s59.7-44.8,66.3-97.8C404.4,80.7,404.9,74.4,404.9,72.8z"/>
			</defs>
			<clipPath id="SVGID_11_">
				<use xlink:href="#SVGID_10_"  overflow="visible"/>
			</clipPath>
			<g clip-path="url(#SVGID_11_)">
				<defs>
					<path id="SVGID_12_" d="M440.6,144.6c0-8.4-3.5-16-9.1-21.5c-0.2-0.2-0.5-0.5-0.7-0.7c-0.2-0.2-0.5-0.5-0.7-0.7
						c-0.2-0.2-0.5-0.5-0.7-0.7c-0.2-0.2-0.5-0.5-0.7-0.7c-0.2-0.2-0.5-0.5-0.7-0.7c-0.2-0.2-0.5-0.5-0.7-0.7
						c-0.2-0.2-0.5-0.5-0.7-0.7c-0.2-0.2-0.5-0.5-0.7-0.7c-0.2-0.2-0.5-0.5-0.7-0.7c-0.2-0.2-0.5-0.5-0.7-0.7
						c-0.2-0.2-0.5-0.5-0.7-0.7c-0.2-0.2-0.5-0.5-0.7-0.7c-0.2-0.2-0.5-0.5-0.7-0.7c-0.2-0.2-0.5-0.5-0.7-0.7
						c-0.2-0.2-0.5-0.5-0.7-0.7c-0.2-0.2-0.5-0.5-0.7-0.7c-0.2-0.2-0.5-0.5-0.7-0.7c-0.2-0.2-0.5-0.5-0.7-0.7
						c-0.2-0.2-0.5-0.5-0.7-0.7c-0.2-0.2-0.5-0.5-0.7-0.7c-0.2-0.2-0.5-0.5-0.7-0.7c-0.2-0.2-0.5-0.5-0.7-0.7
						c-0.2-0.2-0.5-0.5-0.7-0.7c-0.2-0.2-0.5-0.5-0.7-0.7c-0.2-0.2-0.5-0.5-0.7-0.7c-0.2-0.2-0.5-0.5-0.7-0.7
						c-0.2-0.2-0.5-0.5-0.7-0.7c-0.2-0.2-0.5-0.5-0.7-0.7c-0.2-0.2-0.5-0.5-0.7-0.7c-0.2-0.2-0.5-0.5-0.7-0.7
						c-0.2-0.2-0.5-0.5-0.7-0.7c-0.2-0.2-0.5-0.5-0.7-0.7c-0.2-0.2-0.5-0.5-0.7-0.7c-0.2-0.2-0.5-0.5-0.7-0.7
						c-0.2-0.2-0.5-0.5-0.7-0.7c-0.2-0.2-0.5-0.5-0.7-0.7c-0.2-0.2-0.5-0.5-0.7-0.7c-0.2-0.2-0.5-0.5-0.7-0.7
						c-0.2-0.2-0.5-0.5-0.7-0.7c-0.2-0.2-0.5-0.5-0.7-0.7c-0.2-0.2-0.5-0.5-0.7-0.7c-0.2-0.2-0.5-0.5-0.7-0.7
						c-0.2-0.2-0.5-0.5-0.7-0.7c-0.2-0.2-0.5-0.5-0.7-0.7c-0.2-0.2-0.5-0.5-0.7-0.7c-0.2-0.2-0.5-0.5-0.7-0.7
						c-0.2-0.2-0.5-0.5-0.7-0.7c-0.2-0.2-0.5-0.5-0.7-0.7c-0.2-0.2-0.5-0.5-0.7-0.7c-0.2-0.2-0.5-0.5-0.7-0.7
						c-0.2-0.2-0.5-0.5-0.7-0.7c-0.2-0.2-0.5-0.5-0.7-0.7c-0.2-0.2-0.5-0.5-0.7-0.7c-0.2-0.2-0.5-0.5-0.7-0.7
						c-0.2-0.2-0.5-0.5-0.7-0.7c-0.2-0.2-0.5-0.5-0.7-0.7c-0.2-0.2-0.5-0.5-0.7-0.7c-0.2-0.2-0.5-0.5-0.7-0.7
						c-0.2-0.2-0.5-0.5-0.7-0.7c-0.2-0.2-0.5-0.5-0.7-0.7c-0.2-0.2-0.5-0.5-0.7-0.7c-0.2-0.2-0.5-0.5-0.7-0.7
						c-0.2-0.2-0.5-0.5-0.7-0.7c-0.2-0.2-0.5-0.5-0.7-0.7c-0.2-0.2-0.5-0.5-0.7-0.7c-0.2-0.2-0.5-0.5-0.7-0.7
						c-0.2-0.2-0.5-0.5-0.7-0.7c-0.2-0.2-0.5-0.5-0.7-0.7c-0.2-0.2-0.5-0.5-0.7-0.7c-0.2-0.2-0.5-0.5-0.7-0.7
						c-0.2-0.2-0.5-0.5-0.7-0.7c-0.2-0.2-0.5-0.5-0.7-0.7c-0.2-0.2-0.5-0.5-0.7-0.7c-0.2-0.2-0.5-0.5-0.7-0.7
						c-0.2-0.2-0.5-0.5-0.7-0.7c-0.2-0.2-0.5-0.5-0.7-0.7c-0.2-0.2-0.5-0.5-0.7-0.7c-0.2-0.2-0.5-0.5-0.7-0.7
						c-0.2-0.2-0.5-0.5-0.7-0.7c-0.2-0.2-0.5-0.5-0.7-0.7c-0.2-0.2-0.5-0.5-0.7-0.7c-0.2-0.2-0.5-0.5-0.7-0.7
						c-0.2-0.2-0.5-0.5-0.7-0.7c-0.2-0.2-0.5-0.5-0.7-0.7c-0.2-0.2-0.5-0.5-0.7-0.7c-0.2-0.2-0.5-0.5-0.7-0.7
						c-0.2-0.2-0.5-0.5-0.7-0.7c-0.2-0.2-0.5-0.5-0.7-0.7c-0.2-0.2-0.5-0.5-0.7-0.7c-0.2-0.2-0.5-0.5-0.7-0.7
						c-0.2-0.2-0.5-0.5-0.7-0.7c-0.2-0.2-0.5-0.5-0.7-0.7c-0.2-0.2-0.5-0.5-0.7-0.7c-0.2-0.2-0.5-0.5-0.7-0.7
						c-0.2-0.2-0.5-0.5-0.7-0.7c-0.2-0.2-0.5-0.5-0.7-0.7c-0.2-0.2-0.5-0.5-0.7-0.7c-0.2-0.2-0.5-0.5-0.7-0.7
						c-0.2-0.2-0.5-0.5-0.7-0.7c-0.2-0.2-0.5-0.5-0.7-0.7c-5.4-5.6-13-9.1-21.4-9.1c-16.5,0-29.9,13.4-29.9,29.9
						c0,21,8.5,41.1,23.3,55.9c0.2,0.2,0.5,0.5,0.7,0.7c0.2,0.2,0.5,0.5,0.7,0.7c0.2,0.2,0.5,0.5,0.7,0.7c0.2,0.2,0.5,0.5,0.7,0.7
						c0.2,0.2,0.5,0.5,0.7,0.7c0.2,0.2,0.5,0.5,0.7,0.7c0.2,0.2,0.5,0.5,0.7,0.7c0.2,0.2,0.5,0.5,0.7,0.7c0.2,0.2,0.5,0.5,0.7,0.7
						c0.2,0.2,0.5,0.5,0.7,0.7c0.2,0.2,0.5,0.5,0.7,0.7c0.2,0.2,0.5,0.5,0.7,0.7c0.2,0.2,0.5,0.5,0.7,0.7c0.2,0.2,0.5,0.5,0.7,0.7
						c0.2,0.2,0.5,0.5,0.7,0.7c0.2,0.2,0.5,0.5,0.7,0.7c0.2,0.2,0.5,0.5,0.7,0.7c0.2,0.2,0.5,0.5,0.7,0.7c0.2,0.2,0.5,0.5,0.7,0.7
						c0.2,0.2,0.5,0.5,0.7,0.7c0.2,0.2,0.5,0.5,0.7,0.7c0.2,0.2,0.5,0.5,0.7,0.7c0.2,0.2,0.5,0.5,0.7,0.7c0.2,0.2,0.5,0.5,0.7,0.7
						c0.2,0.2,0.5,0.5,0.7,0.7c0.2,0.2,0.5,0.5,0.7,0.7c0.2,0.2,0.5,0.5,0.7,0.7c0.2,0.2,0.5,0.5,0.7,0.7c0.2,0.2,0.5,0.5,0.7,0.7
						c0.2,0.2,0.5,0.5,0.7,0.7c0.2,0.2,0.5,0.5,0.7,0.7c0.2,0.2,0.5,0.5,0.7,0.7c0.2,0.2,0.5,0.5,0.7,0.7c0.2,0.2,0.5,0.5,0.7,0.7
						c0.2,0.2,0.5,0.5,0.7,0.7c0.2,0.2,0.5,0.5,0.7,0.7c0.2,0.2,0.5,0.5,0.7,0.7c0.2,0.2,0.5,0.5,0.7,0.7c0.2,0.2,0.5,0.5,0.7,0.7
						c0.2,0.2,0.5,0.5,0.7,0.7c0.2,0.2,0.5,0.5,0.7,0.7c0.2,0.2,0.5,0.5,0.7,0.7c0.2,0.2,0.5,0.5,0.7,0.7c0.2,0.2,0.5,0.5,0.7,0.7
						c0.2,0.2,0.5,0.5,0.7,0.7c0.2,0.2,0.5,0.5,0.7,0.7c0.2,0.2,0.5,0.5,0.7,0.7c0.2,0.2,0.5,0.5,0.7,0.7c0.2,0.2,0.5,0.5,0.7,0.7
						c0.2,0.2,0.5,0.5,0.7,0.7c0.2,0.2,0.5,0.5,0.7,0.7c0.2,0.2,0.5,0.5,0.7,0.7c0.2,0.2,0.5,0.5,0.7,0.7c0.2,0.2,0.5,0.5,0.7,0.7
						c0.2,0.2,0.5,0.5,0.7,0.7c0.2,0.2,0.5,0.5,0.7,0.7c0.2,0.2,0.5,0.5,0.7,0.7c0.2,0.2,0.5,0.5,0.7,0.7c0.2,0.2,0.5,0.5,0.7,0.7
						c0.2,0.2,0.5,0.5,0.7,0.7c0.2,0.2,0.5,0.5,0.7,0.7c0.2,0.2,0.5,0.5,0.7,0.7c0.2,0.2,0.5,0.5,0.7,0.7c0.2,0.2,0.5,0.5,0.7,0.7
						c0.2,0.2,0.5,0.5,0.7,0.7c0.2,0.2,0.5,0.5,0.7,0.7c0.2,0.2,0.5,0.5,0.7,0.7c0.2,0.2,0.5,0.5,0.7,0.7c0.2,0.2,0.5,0.5,0.7,0.7
						c0.2,0.2,0.5,0.5,0.7,0.7c0.2,0.2,0.5,0.5,0.7,0.7c0.2,0.2,0.5,0.5,0.7,0.7c0.2,0.2,0.5,0.5,0.7,0.7c0.2,0.2,0.5,0.5,0.7,0.7
						c0.2,0.2,0.5,0.5,0.7,0.7c0.2,0.2,0.5,0.5,0.7,0.7c0.2,0.2,0.5,0.5,0.7,0.7c0.2,0.2,0.5,0.5,0.7,0.7c0.2,0.2,0.5,0.5,0.7,0.7
						c0.2,0.2,0.5,0.5,0.7,0.7c0.2,0.2,0.5,0.5,0.7,0.7c0.2,0.2,0.5,0.5,0.7,0.7c0.2,0.2,0.5,0.5,0.7,0.7c0.2,0.2,0.5,0.5,0.7,0.7
						c0.2,0.2,0.5,0.5,0.7,0.7c0.2,0.2,0.5,0.5,0.7,0.7c0.2,0.2,0.5,0.5,0.7,0.7c0.2,0.2,0.5,0.5,0.7,0.7c0.2,0.2,0.5,0.5,0.7,0.7
						c0.2,0.2,0.5,0.5,0.7,0.7c0.2,0.2,0.5,0.5,0.7,0.7c0.2,0.2,0.5,0.5,0.7,0.7c0.2,0.2,0.5,0.5,0.7,0.7c0.2,0.2,0.5,0.5,0.7,0.7
						c0.2,0.2,0.5,0.5,0.7,0.7c0.2,0.2,0.5,0.5,0.7,0.7c0.2,0.2,0.5,0.5,0.7,0.7c0.2,0.2,0.5,0.5,0.7,0.7c0.2,0.2,0.5,0.5,0.7,0.7
						c0.2,0.2,0.5,0.5,0.7,0.7c1.1,1.1,2.2,2.2,3.3,3.2c1.1,1,2.5,1.5,3.9,1.5c1.6,0,3.2-0.7,4.4-1.9c2.2-2.4,2-6.1-0.4-8.3
						c-7-6.3-12.5-14-16.2-22.4c3.8,1.7,7.9,2.7,12.3,2.7C427.2,174.4,440.6,161,440.6,144.6z"/>
				</defs>
				<linearGradient id="SVGID_13_" gradientUnits="userSpaceOnUse" x1="316.2199" y1="60.1578" x2="382.3891" y2="126.327">
					<stop  offset="1.102941e-002" style="stop-color:#FBFBFB;stop-opacity:0.1"/>
					<stop  offset="1" style="stop-color:#FBFBFB;stop-opacity:0"/>
				</linearGradient>
				<use xlink:href="#SVGID_12_"  overflow="visible" fill="url(#SVGID_13_)"/>
				<clipPath id="SVGID_14_">
					<use xlink:href="#SVGID_12_"  overflow="visible"/>
				</clipPath>
				<linearGradient id="SVGID_15_" gradientUnits="userSpaceOnUse" x1="317.1606" y1="59.2172" x2="383.3298" y2="125.3864">
					<stop  offset="1.102941e-002" style="stop-color:#FBFBFB;stop-opacity:0.1"/>
					<stop  offset="1" style="stop-color:#FBFBFB;stop-opacity:0"/>
				</linearGradient>
				<path clip-path="url(#SVGID_14_)" fill="url(#SVGID_15_)" d="M404.9,72.8c0-36.9-29.9-66.9-66.9-66.9s-66.9,29.9-66.9,66.9
					c0,1.6,0.5,7.9,0.6,9c6.5,53.1,66.3,97.8,66.3,97.8s59.7-44.8,66.3-97.8C404.4,80.7,404.9,74.4,404.9,72.8z"/>
			</g>
		</g>
		<g>
			<path fill="#FBFBFB" d="M338,185.5c-1.2,0-2.5-0.4-3.5-1.2c-2.5-1.9-61.8-46.9-68.6-101.8c-0.2-1.2-0.7-7.8-0.7-9.7
				C265.2,32.6,297.8,0,338,0s72.8,32.6,72.8,72.8c0,1.9-0.5,8.5-0.7,9.7c-6.8,54.9-66.1,99.9-68.6,101.8
				C340.4,185.1,339.2,185.5,338,185.5z M338,11.8c-33.6,0-61,27.4-61,61c0,1.3,0.5,7.3,0.6,8.2c5.3,42.7,47.8,80.7,60.4,91.1
				c12.6-10.4,55.2-48.4,60.4-91c0.1-0.9,0.6-6.9,0.6-8.3C399,39.1,371.6,11.8,338,11.8z"/>
		</g>
		<g>
			<path fill="#FBFBFB" d="M338,41.9c-16.5,0-29.9,13.4-29.9,29.9c0,22.2,9.4,43.4,25.9,58.3c1.1,1,2.5,1.5,3.9,1.5
				c1.6,0,3.2-0.7,4.4-1.9c2.2-2.4,2-6.1-0.4-8.3c-7-6.3-12.5-14-16.2-22.4c3.8,1.7,7.9,2.7,12.3,2.7c16.5,0,29.9-13.4,29.9-29.9
				S354.4,41.9,338,41.9z M338,89.9c-10,0-18.1-8.1-18.1-18.1c0-10,8.1-18.1,18.1-18.1c10,0,18.1,8.1,18.1,18.1
				C356.1,81.8,347.9,89.9,338,89.9z"/>
		</g>
	</g>
	<g>
		<path fill="#FBFBFB" d="M246.4,255.4c0.9,2.3,3.5,3.5,5.8,2.6c2.3-0.9,3.5-3.5,2.6-5.8c-2.4-6.1-5.9-11.6-10.3-16.2
			c4.2-4.2,10-6.6,16.1-6.6c6,0,11.7,2.3,16,6.6c0,0,0.1,0.1,0.1,0.1c0.2,0.1,0.3,0.3,0.5,0.4c0.1,0,0.1,0.1,0.2,0.1
			c0.2,0.1,0.4,0.2,0.6,0.3c0.1,0,0.1,0.1,0.2,0.1c0.5,0.2,1,0.3,1.6,0.3c0.3,0,0.6,0,0.9-0.1c0,0,0,0,0,0c0,0,0.1,0,0.1,0
			c27.1-6.4,46-30.3,46-58.1c0-4.2-0.4-8.3-1.3-12.3c-0.5-2.4-2.9-4-5.3-3.5c-2.4,0.5-4,2.9-3.5,5.3c0.7,3.4,1.1,7,1.1,10.5
			c0,22.9-15,42.6-36.8,48.8c-5.7-4.8-12.9-7.4-20.4-7.4c-8.6,0-16.9,3.6-22.8,9.7c-8.4-6.1-18.7-9.7-29.4-9.7
			c-17.6,0-33.1,9.2-42,23c-11.2-6.1-23.7-9.4-36.6-9.4c-18.3,0-36,6.6-49.9,18.6c-13.5,11.7-22.5,27.8-25.3,45.3
			c-14.2,7.6-24.3,21.7-26.6,38.2c-3-1-6.1-1.5-9.2-1.5c-6,0-11.8,1.8-16.8,5.2c-2.1,1.4-2.6,4.2-1.2,6.3c0.9,1.3,2.3,2,3.7,2
			c0.9,0,1.8-0.3,2.5-0.8c3.5-2.4,7.5-3.6,11.7-3.6c3.6,0,7.2,0.9,10.3,2.7c0.8,0.7,1.8,1.1,3,1.1c1.3,0,2.5-0.6,3.3-1.5
			c0,0,0,0,0,0c0.2-0.2,0.3-0.4,0.4-0.6c0,0,0.1-0.1,0.1-0.1c0.1-0.2,0.2-0.3,0.3-0.5c0,0,0,0,0,0c0.3-0.8,0.5-1.6,0.4-2.3
			c0.3-23,19.1-41.6,42.2-41.6c23.3,0,42.2,18.9,42.2,42.2c0,2.5,2,4.5,4.5,4.5s4.5-2,4.5-4.5c0-28.2-23-51.2-51.2-51.2
			c-4.9,0-9.6,0.7-14.1,2c7.4-29.4,34.3-50.9,65.2-50.9c11.4,0,22.6,2.9,32.5,8.4c-2.4,5.8-3.7,12.2-3.7,18.8c0,2.5,2,4.5,4.5,4.5
			s4.5-2,4.5-4.5c0-22.5,18.3-40.8,40.8-40.8C225.1,229.2,240.4,239.7,246.4,255.4z"/>
		<path fill="#FBFBFB" d="M212.8,247.7c0-2.5-2-4.5-4.5-4.5c-14.8,0-26.9,12.1-26.9,26.9c0,2.5,2,4.5,4.5,4.5s4.5-2,4.5-4.5
			c0-9.9,8-17.9,17.9-17.9C210.8,252.2,212.8,250.2,212.8,247.7z"/>
		<path fill="#FBFBFB" d="M78.7,316.4c-14.6,0-26.5,11.9-26.5,26.5c0,2.5,2,4.5,4.5,4.5s4.5-2,4.5-4.5c0-9.7,7.9-17.5,17.5-17.5
			c2.5,0,4.5-2,4.5-4.5S81.2,316.4,78.7,316.4z"/>
		<path fill="#FBFBFB" d="M64,352.6c-1.4-2.1-4.2-2.7-6.2-1.3c-2.1,1.4-2.7,4.2-1.3,6.2c0.9,1.3,1.9,2.6,2.9,3.7
			c0.9,0.9,2.1,1.4,3.3,1.4c1.1,0,2.2-0.4,3.1-1.2c1.8-1.7,1.9-4.6,0.2-6.4C65.3,354.3,64.6,353.4,64,352.6z"/>
		<path fill="#FBFBFB" d="M485.5,270.1c0,2.5,2,4.5,4.5,4.5s4.5-2,4.5-4.5c0-14.8-12.1-26.9-26.9-26.9c-2.5,0-4.5,2-4.5,4.5
			s2,4.5,4.5,4.5C477.5,252.2,485.5,260.2,485.5,270.1z"/>
		<path fill="#FBFBFB" d="M597.2,316.4c-2.5,0-4.5,2-4.5,4.5s2,4.5,4.5,4.5c9.7,0,17.5,7.9,17.5,17.5c0,2.5,2,4.5,4.5,4.5
			s4.5-2,4.5-4.5C623.7,328.3,611.9,316.4,597.2,316.4z"/>
		<path fill="#FBFBFB" d="M618.1,351.3c-2.1-1.4-4.9-0.8-6.2,1.3c-0.6,0.9-1.2,1.7-1.9,2.5c-1.7,1.8-1.6,4.7,0.2,6.4
			c0.9,0.8,2,1.2,3.1,1.2c1.2,0,2.4-0.5,3.3-1.4c1.1-1.1,2.1-2.4,2.9-3.7C620.8,355.4,620.2,352.6,618.1,351.3z"/>
		<path fill="#FBFBFB" d="M674,339.8c-5-3.4-10.8-5.2-16.8-5.2c-3.2,0-6.3,0.5-9.2,1.5c-2.2-16.6-12.4-30.6-26.6-38.2
			c-2.8-17.5-11.8-33.6-25.3-45.3c-13.8-12-31.5-18.6-49.9-18.6c-12.9,0-25.4,3.2-36.6,9.4c-8.9-13.8-24.4-23-42-23
			c-10.8,0-21,3.6-29.4,9.7c-6-6.1-14.2-9.7-22.8-9.7c-7.5,0-14.7,2.6-20.4,7.4c-21.8-6.2-36.8-25.9-36.8-48.8
			c0-3.5,0.4-7.1,1.1-10.5c0.5-2.4-1-4.8-3.5-5.3c-2.4-0.5-4.8,1-5.3,3.5c-0.8,4-1.3,8.2-1.3,12.3c0,27.8,18.9,51.8,46,58.1
			c0,0,0.1,0,0.1,0c0,0,0,0,0,0c0.3,0.1,0.6,0.1,0.9,0.1c0.6,0,1.1-0.1,1.6-0.3c0.1,0,0.1-0.1,0.2-0.1c0.2-0.1,0.4-0.2,0.6-0.3
			c0.1,0,0.1-0.1,0.2-0.1c0.2-0.1,0.3-0.3,0.5-0.4c0,0,0.1-0.1,0.1-0.1c4.3-4.2,10-6.6,16-6.6c6,0,11.8,2.4,16.1,6.6
			c-4.4,4.6-7.9,10.1-10.3,16.2c-0.9,2.3,0.3,4.9,2.6,5.8c2.3,0.9,4.9-0.3,5.8-2.6c6-15.6,21.3-26.1,38.1-26.1
			c22.5,0,40.8,18.3,40.8,40.8c0,2.5,2,4.5,4.5,4.5c2.5,0,4.5-2,4.5-4.5c0-6.7-1.3-13-3.7-18.8c9.9-5.5,21-8.4,32.5-8.4
			c30.8,0,57.8,21.5,65.2,50.9c-4.5-1.3-9.2-2-14.1-2c-28.2,0-51.2,23-51.2,51.2c0,2.5,2,4.5,4.5,4.5s4.5-2,4.5-4.5
			c0-23.3,18.9-42.2,42.2-42.2c23.1,0,41.8,18.6,42.2,41.6c-0.1,0.8,0,1.6,0.4,2.3c0,0,0,0,0,0c0.1,0.2,0.1,0.3,0.3,0.5
			c0,0,0.1,0.1,0.1,0.1c0.1,0.2,0.3,0.4,0.4,0.6c0,0,0,0,0,0c0.8,0.9,2,1.5,3.3,1.5c1.1,0,2.2-0.4,3-1.1c3.1-1.8,6.6-2.7,10.3-2.7
			c4.2,0,8.3,1.3,11.7,3.6c0.8,0.5,1.7,0.8,2.5,0.8c1.4,0,2.8-0.7,3.7-2C676.5,344,676,341.2,674,339.8z"/>
		<path fill="#FBFBFB" d="M447.1,297.9c-6.9,0-13.6,1-20.2,2.9c-12.7-21-35.5-33.9-60.2-33.9c-6.1,0-12.1,0.8-18,2.3
			c-11.4-9.5-26-15.2-41.9-15.2c-31.9,0-59.1,23-64.5,54.1c-25.9,5.3-45,28.5-45,55.2c0,2.5,2,4.5,4.5,4.5s4.5-2,4.5-4.5
			c0-23.4,17.5-43.6,40.6-46.9c0.1,0,0.2-0.1,0.3-0.1c0.1,0,0.3-0.1,0.4-0.1c0.2,0,0.3-0.1,0.4-0.2c0.1-0.1,0.2-0.1,0.4-0.2
			c0.1-0.1,0.3-0.2,0.4-0.3c0.1-0.1,0.2-0.1,0.3-0.2c0.1-0.1,0.2-0.2,0.3-0.3c0.1-0.1,0.2-0.2,0.3-0.3c0.1-0.1,0.2-0.2,0.3-0.4
			c0.1-0.1,0.1-0.2,0.2-0.3c0.1-0.1,0.1-0.3,0.2-0.4c0-0.1,0.1-0.2,0.1-0.4c0.1-0.2,0.1-0.3,0.1-0.5c0-0.1,0-0.2,0.1-0.2
			c3.5-28.2,27.6-49.5,56.1-49.5c31.2,0,56.5,25.4,56.5,56.5c0,2.5,2,4.5,4.5,4.5c0.1,0,0.2,0,0.3,0c0.2,0,0.4,0.1,0.6,0.1
			c15.5,0,28,12.6,28,28c0,3.3-0.6,6.6-1.7,9.6c-0.9,2.3,0.3,4.9,2.7,5.8c0.5,0.2,1,0.3,1.5,0.3c1.8,0,3.6-1.1,4.2-3
			c1.5-4.1,2.2-8.3,2.2-12.7c0-19.2-14.7-35.1-33.5-36.9c-1-14.7-6.8-28-15.8-38.5c3.4-0.6,6.8-0.9,10.3-0.9
			c22.3,0,42.9,12.1,53.7,31.7c0.8,1.5,2.4,2.3,3.9,2.3c0.4,0,0.8-0.1,1.2-0.2c0.9,0.3,1.8,0.3,2.8,0c6-1.9,12.3-2.9,18.7-2.9
			c32,0,58.9,25,61.2,56.8c0.2,2.4,2.1,4.2,4.5,4.2c0.1,0,0.2,0,0.3,0c2.5-0.2,4.3-2.3,4.2-4.8C514.6,326.5,483.7,297.9,447.1,297.9
			z"/>
		<path fill="#FBFBFB" d="M306.9,277.3c-23.3,0-42.3,19-42.3,42.3c0,2.5,2,4.5,4.5,4.5s4.5-2,4.5-4.5c0-18.4,15-33.3,33.3-33.3
			c2.5,0,4.5-2,4.5-4.5S309.3,277.3,306.9,277.3z"/>
	</g>
</g>
<g id="Calque_6" display="none">
</g>
</svg>
