<?xml version="1.0" encoding="utf-8"?>
<!-- Generator: Adobe Illustrator 17.1.0, SVG Export Plug-In . SVG Version: 6.00 Build 0)  -->
<!DOCTYPE svg PUBLIC "-//W3C//DTD SVG 1.1//EN" "http://www.w3.org/Graphics/SVG/1.1/DTD/svg11.dtd">
<svg version="1.1" id="Calque_1" xmlns="http://www.w3.org/2000/svg" xmlns:xlink="http://www.w3.org/1999/xlink" x="0px" y="0px"
	 viewBox="2069.8 119.8 2402.5 3061.4" enable-background="new 2069.8 119.8 2402.5 3061.4" xml:space="preserve">
<path fill="none" d="M3271,314c-555.2,0-1007,451.8-1007,1007c0,21.9,7.4,120.8,9.4,135.5c87.2,705.7,789,1331.6,997.7,1503.6
	c68.1-56.2,189.1-161,323.9-301.1c-1.3-1.3-2.5-2.5-3.9-3.9c-4-4-8-7.9-11.9-11.9c-4-4-8-7.9-11.9-11.9c-4-4-8-7.9-11.9-11.9
	c-4-4-8-7.9-11.9-11.9c-4-4-8-7.9-11.9-11.9c-4-4-8-7.9-11.9-11.9c-4-4-7.9-7.9-11.9-11.9s-8-7.9-11.9-11.9c-4-4-7.9-7.9-11.9-11.9
	c-4-4-8-7.9-11.9-11.9c-4-4-8-7.9-11.9-11.9c-4-4-8-7.9-11.9-11.9c-4-4-8-7.9-11.9-11.9c-4-4-8-7.9-11.9-11.9c-4-4-8-7.9-11.9-11.9
	c-4-3.9-7.9-7.9-11.9-11.9s-8-7.9-11.9-11.9c-4-4-8-7.9-11.9-11.9c-4-4-8-7.9-11.9-11.9c-4-4-8-7.9-11.9-11.9c-4-4-8-7.9-11.9-11.9
	c-4-4-8-7.9-11.9-11.9c-4-4-8-7.9-11.9-11.9c-4-4-8-7.9-11.9-11.9c-4-4-8-7.9-11.9-11.9c-4-4-8-7.9-11.9-11.9c-4-4-8-7.9-11.9-11.9
	c-4-3.9-7.9-7.9-11.9-11.9s-8-7.9-11.9-11.9c-4-4-8-7.9-11.9-11.9c-4-4-8-7.9-11.9-11.9c-4-4-8-7.9-11.9-11.9c-4-4-8-7.9-11.9-11.9
	c-4-4-8-7.9-11.9-11.9c-4-3.9-7.9-7.9-11.9-11.9c-0.1-0.1-0.1-0.1-0.3-0.3c-205.8-198.8-339.4-459.9-381.8-740.3
	c0-0.1,0-0.4-0.1-0.6c-0.7-4.9-1.5-9.7-2.1-14.6c-0.1-0.6-0.1-1.3-0.3-1.9c-0.6-4.5-1.2-9.1-1.8-13.5c-0.1-1-0.3-1.9-0.3-3
	c-0.6-4.3-1-8.6-1.5-12.8c-0.1-1.2-0.3-2.5-0.4-3.7c-0.4-4-0.9-8.2-1.3-12.2c-0.1-1.5-0.3-2.8-0.4-4.3c-0.4-4-0.7-7.9-1.2-11.9
	c-0.1-1.6-0.3-3.1-0.4-4.8c-0.3-3.9-0.6-7.7-0.9-11.5c-0.1-1.6-0.3-3.4-0.3-5.1c-0.3-3.7-0.6-7.6-0.7-11.3c-0.1-1.8-0.1-3.4-0.3-5.2
	c-0.3-3.7-0.4-7.4-0.6-11.3c-0.1-1.8-0.1-3.4-0.3-5.2c-0.1-3.7-0.3-7.6-0.4-11.3c0-1.6-0.1-3.1-0.1-4.8c-0.1-3.9-0.3-7.9-0.3-11.8
	c0-1.2,0-2.2,0-3.4c-0.1-9.8-0.3-19.5-0.3-29.3c0-271.8,221.1-492.9,492.9-492.9c0.1,0,0.3,0,0.4,0c3.9,0,7.6,0,11.5,0.1
	c0.3,0,0.7,0,1,0c3.7,0.1,7.4,0.3,11.2,0.4c0.6,0,1,0,1.6,0.1c3.4,0.1,7,0.4,10.4,0.6c0.7,0,1.6,0.1,2.4,0.1
	c3.1,0.3,6.4,0.6,9.5,0.9c1.2,0.1,2.2,0.1,3.4,0.3c2.8,0.3,5.5,0.6,8.3,0.9c1.8,0.1,3.7,0.4,5.5,0.7c2.1,0.3,4.2,0.6,6.2,0.9
	c3,0.4,6,0.9,8.9,1.3c0.9,0.1,1.8,0.3,2.7,0.4c108.6,18.6,205,72.8,277.2,150c1.8,1.9,3.7,3.7,5.5,5.7c4,3.9,8,7.9,11.9,11.9
	c4,3.9,8,7.9,11.9,11.9c4,3.9,8,7.9,11.9,11.9c4,3.9,8,7.9,11.9,11.9c4,3.9,8,7.9,11.9,11.9c4,3.9,8,7.9,11.9,11.9
	c4,3.9,8,7.9,11.9,11.9c4,3.9,8,7.9,11.9,11.9c4,3.9,8,7.9,11.9,11.9c4,3.9,8,7.9,11.9,11.9c4,3.9,8,7.9,11.9,11.9
	c4,3.9,8,7.9,11.9,11.9c4,3.9,8,7.9,11.9,11.9c4,3.9,8,7.9,11.9,11.9c4,3.9,8,7.9,11.9,11.9c4,3.9,8,7.9,11.9,11.9
	c4,3.9,8,7.9,11.9,11.9c4,3.9,8,7.9,11.9,11.9c4,3.9,8,7.9,11.9,11.9c4,3.9,8,7.9,11.9,11.9c4,3.9,8,7.9,11.9,11.9
	c4,3.9,8,7.9,11.9,11.9c4,3.9,8,7.9,11.9,11.9c4,3.9,8,7.9,11.9,11.9c4,3.9,8,7.9,11.9,11.9c4,3.9,8,7.9,11.9,11.9
	c4,3.9,8,7.9,11.9,11.9c4,3.9,8,7.9,11.9,11.9c4,3.9,8,7.9,11.9,11.9c4,3.9,8,7.9,11.9,11.9c4,3.9,8,7.9,11.9,11.9
	c4,3.9,8,7.9,11.9,11.9c4,3.9,8,7.9,11.9,11.9c4,3.9,8,7.9,11.9,11.9c4,3.9,8,7.9,11.9,11.9c4,3.9,8,7.9,11.9,11.9
	c4,3.9,8,7.9,11.9,11.9c4,3.9,8,7.9,11.9,11.9c4,3.9,8,7.9,11.9,11.9c4,3.9,8,7.9,11.9,11.9c4,3.9,8,7.9,11.9,11.9
	c4,3.9,8,7.9,11.9,11.9c4,3.9,8,7.9,11.9,11.9c4,3.9,8,7.9,11.9,11.9c4,3.9,8,7.9,11.9,11.9c4,3.9,8,7.9,11.9,11.9
	c4,3.9,8,7.9,11.9,11.9c4,3.9,8,7.9,11.9,11.9c4,3.9,8,7.9,11.9,11.9c4,3.9,8,7.9,11.9,11.9c4,3.9,8,7.9,11.9,11.9
	c1,0.9,1.9,1.9,2.8,2.8c9.5-42,17-84.2,22.3-126.8c1.9-15.5,9.4-114.3,9.4-136.3C4278,765.8,3826.3,314,3271,314z"/>
<g>
	
		<linearGradient id="SVGID_1_" gradientUnits="userSpaceOnUse" x1="522.062" y1="881.9603" x2="1255.6493" y2="1615.5475" gradientTransform="matrix(1.4878 0 0 1.4878 2077.332 -257.4981)">
		<stop  offset="1.102941e-002" style="stop-color:#FAFAFA;stop-opacity:0.15"/>
		<stop  offset="1" style="stop-color:#FAFAFA;stop-opacity:0"/>
	</linearGradient>
	<path fill="url(#SVGID_1_)" d="M4231.5,1569.2c-3.9-4-7.9-8-11.9-11.9c-3.9-4-7.9-8-11.9-11.9c-3.9-4-7.9-8-11.9-11.9
		c-3.9-4-7.9-8-11.9-11.9c-3.9-4-7.9-8-11.9-11.9c-3.9-4-7.9-8-11.9-11.9c-3.9-4-7.9-8-11.9-11.9c-3.9-4-7.9-8-11.9-11.9
		c-3.9-4-7.9-8-11.9-11.9c-3.9-4-7.9-8-11.9-11.9c-3.9-4-7.9-8-11.9-11.9c-3.9-4-7.9-8-11.9-11.9c-3.9-4-7.9-8-11.9-11.9
		c-3.9-4-7.9-8-11.9-11.9c-3.9-4-7.9-8-11.9-11.9c-3.9-4-7.9-8-11.9-11.9c-3.9-4-7.9-8-11.9-11.9c-3.9-4-7.9-8-11.9-11.9
		c-3.9-4-7.9-8-11.9-11.9c-3.9-4-7.9-8-11.9-11.9c-3.9-4-7.9-8-11.9-11.9c-3.9-4-7.9-8-11.9-11.9c-3.9-4-7.9-8-11.9-11.9
		c-3.9-4-7.9-8-11.9-11.9c-3.9-4-7.9-8-11.9-11.9c-3.9-4-7.9-8-11.9-11.9c-3.9-4-7.9-8-11.9-11.9c-3.9-4-7.9-8-11.9-11.9
		c-3.9-4-7.9-8-11.9-11.9c-3.9-4-7.9-8-11.9-11.9c-3.9-4-7.9-8-11.9-11.9c-3.9-4-7.9-8-11.9-11.9c-3.9-4-7.9-8-11.9-11.9
		c-3.9-4-7.9-8-11.9-11.9c-3.9-4-7.9-8-11.9-11.9c-3.9-4-7.9-8-11.9-11.9c-3.9-4-7.9-8-11.9-11.9c-3.9-4-7.9-8-11.9-11.9
		c-3.9-4-7.9-8-11.9-11.9c-3.9-4-7.9-8-11.9-11.9c-3.9-4-7.9-8-11.9-11.9c-3.9-4-7.9-8-11.9-11.9c-3.9-4-7.9-8-11.9-11.9
		c-3.9-4-7.9-8-11.9-11.9c-3.9-4-7.9-8-11.9-11.9c-3.9-4-7.9-8-11.9-11.9c-3.9-4-7.9-8-11.9-11.9c-3.9-4-7.9-8-11.9-11.9
		c-3.9-4-7.9-8-11.9-11.9c-3.9-4-7.9-8-11.9-11.9c-1.8-1.9-3.7-3.7-5.5-5.7c82.1,88.1,132.6,206.2,132.6,335.9
		c0,271.8-221.1,492.9-492.9,492.9c-72.6,0-141.2-16.2-203.2-44.3c62,139.4,152.8,266,268.2,370.5c39.7,35.9,42.8,97.3,7,137
		c-19.2,21.3-45.5,32-72,32c-23.2,0-46.6-8.3-65-25.1c-10.6-9.7-21.1-19.3-31.4-29.3c0.1,0.1,0.1,0.1,0.3,0.3
		c3.9,4,7.9,7.9,11.9,11.9c3.9,4,7.9,7.9,11.9,11.9c3.9,4,7.9,7.9,11.9,11.9c3.9,4,7.9,7.9,11.9,11.9c3.9,4,7.9,7.9,11.9,11.9
		c3.9,4,7.9,7.9,11.9,11.9c3.9,4,7.9,7.9,11.9,11.9c3.9,4,7.9,7.9,11.9,11.9c3.9,4,7.9,8,11.9,11.9c3.9,4,7.9,8,11.9,11.9
		c3.9,4,7.9,7.9,11.9,11.9c3.9,4,7.9,7.9,11.9,11.9c3.9,4,7.9,7.9,11.9,11.9c3.9,4,7.9,7.9,11.9,11.9c3.9,4,7.9,7.9,11.9,11.9
		c3.9,4,7.9,7.9,11.9,11.9c3.9,4,7.9,7.9,11.9,11.9c3.9,4,7.9,8,11.9,11.9c3.9,4,7.9,8,11.9,11.9c3.9,4,7.9,7.9,11.9,11.9
		c3.9,4,7.9,7.9,11.9,11.9c3.9,4,7.9,7.9,11.9,11.9c3.9,4,7.9,7.9,11.9,11.9c3.9,4,7.9,7.9,11.9,11.9c3.9,4,7.9,7.9,11.9,11.9
		c3.9,4,7.9,7.9,11.9,11.9c3.9,4,7.9,7.9,11.9,11.9s8,8,11.9,11.9c3.9,4,7.9,7.9,11.9,11.9c3.9,4,7.9,7.9,11.9,11.9
		c3.9,4,7.9,7.9,11.9,11.9c3.9,4,7.9,7.9,11.9,11.9c3.9,4,7.9,7.9,11.9,11.9c3.9,4,7.9,7.9,11.9,11.9c3.9,4,7.9,7.9,11.9,11.9
		c1.3,1.3,2.5,2.5,3.9,3.9c252.9-262.9,555.2-650.2,651.5-1074.9c-0.9-0.9-1.9-1.9-2.8-2.8
		C4239.6,1577.1,4235.6,1573.1,4231.5,1569.2z"/>
	
		<linearGradient id="SVGID_2_" gradientUnits="userSpaceOnUse" x1="578.1851" y1="825.8375" x2="1311.7722" y2="1559.4247" gradientTransform="matrix(1.4878 0 0 1.4878 2077.332 -257.4981)">
		<stop  offset="1.102941e-002" style="stop-color:#FAFAFA;stop-opacity:0.15"/>
		<stop  offset="1" style="stop-color:#FAFAFA;stop-opacity:0"/>
	</linearGradient>
	<path fill="url(#SVGID_2_)" d="M3569.8,1304.8c0-164.8-134-298.9-298.7-298.9c-164.7,0-298.7,134-298.7,298.9
		c0,164.7,134,298.7,298.7,298.7C3435.7,1603.7,3569.8,1469.7,3569.8,1304.8z"/>
</g>
<linearGradient id="SVGID_3_" gradientUnits="userSpaceOnUse" x1="2376.8108" y1="547.609" x2="4124.8154" y2="2295.6135">
	<stop  offset="1.102941e-002" style="stop-color:#8289B5"/>
	<stop  offset="0.1941" style="stop-color:#7C9BBC"/>
	<stop  offset="0.4825" style="stop-color:#75B2C4"/>
	<stop  offset="0.7568" style="stop-color:#70BFC8"/>
	<stop  offset="1" style="stop-color:#6FC4CA"/>
</linearGradient>
<path fill="url(#SVGID_3_)" d="M3271,119.8c-662.4,0-1201.2,538.9-1201.2,1201.2c0,31.7,8.2,139.7,10.9,160.1
	c111.9,906.4,1090.5,1649.5,1132.1,1680.8c17.3,12.9,37.8,19.3,58.3,19.3c20.5,0,41.1-6.4,58.3-19.3
	c41.5-31.2,1020.2-774.4,1131.9-1680c2.8-21.1,11-128.8,11-160.8C4472.1,658.7,3933.4,119.8,3271,119.8z M4268.6,1457.2
	c-5.2,42.6-12.8,84.8-22.3,126.8c-96.3,424.8-398.6,812-651.5,1074.9C3460,2799,3339,2903.7,3270.9,2960
	c-208.7-172-910.5-797.9-997.7-1503.6c-1.9-14.7-9.4-113.7-9.4-135.5c0-555.2,451.8-1007.1,1007.1-1007.1S4278,765.6,4278,1320.9
	C4278,1342.9,4270.5,1441.7,4268.6,1457.2z"/>
<linearGradient id="SVGID_4_" gradientUnits="userSpaceOnUse" x1="2361.4712" y1="562.9486" x2="4109.4756" y2="2310.9531">
	<stop  offset="1.102941e-002" style="stop-color:#8289B5"/>
	<stop  offset="0.1941" style="stop-color:#7C9BBC"/>
	<stop  offset="0.4825" style="stop-color:#75B2C4"/>
	<stop  offset="0.7568" style="stop-color:#70BFC8"/>
	<stop  offset="1" style="stop-color:#6FC4CA"/>
</linearGradient>
<path fill="url(#SVGID_4_)" d="M3270.7,2292.9c26.5,0,53-10.7,72-32c36-39.7,32.9-101.2-7-137c-115.5-104.3-206.2-230.9-268.2-370.5
	c62,28.3,130.8,44.3,203.2,44.3c271.8,0,492.9-221.1,492.9-492.9c0-129.7-50.4-247.9-132.6-335.9c-72-77.2-168.6-131.4-277.2-150
	c-0.9-0.1-1.8-0.3-2.7-0.4c-3-0.4-6-0.9-8.9-1.3c-2.1-0.3-4.2-0.6-6.2-0.9c-1.8-0.3-3.6-0.4-5.5-0.7c-2.8-0.3-5.5-0.6-8.3-0.9
	c-1.2-0.1-2.2-0.3-3.4-0.3c-3.1-0.3-6.4-0.6-9.5-0.9c-0.7,0-1.6-0.1-2.4-0.1c-3.4-0.3-7-0.4-10.4-0.6c-0.6,0-1,0-1.6-0.1
	c-3.7-0.1-7.4-0.3-11.2-0.4c-0.3,0-0.7,0-1,0c-3.9-0.1-7.6-0.1-11.5-0.1c-0.1,0-0.3,0-0.4,0c-271.8,0-492.9,221.1-492.9,492.9
	c0,9.8,0.1,19.5,0.3,29.3c0,1.2,0,2.2,0,3.4c0.1,3.9,0.3,7.9,0.3,11.8c0,1.6,0.1,3.1,0.1,4.8c0.1,3.7,0.3,7.6,0.4,11.3
	c0.1,1.8,0.1,3.4,0.3,5.2c0.1,3.7,0.4,7.4,0.6,11.3c0.1,1.8,0.1,3.4,0.3,5.2c0.3,3.7,0.4,7.6,0.7,11.3c0.1,1.6,0.3,3.4,0.3,5.1
	c0.3,3.9,0.6,7.7,0.9,11.5c0.1,1.6,0.3,3.1,0.4,4.8c0.3,4,0.7,7.9,1.2,11.9c0.1,1.5,0.3,2.8,0.4,4.3c0.4,4.2,0.9,8.2,1.3,12.2
	c0.1,1.2,0.3,2.5,0.4,3.7c0.4,4.3,1,8.6,1.5,12.8c0.1,1,0.3,1.9,0.3,3c0.6,4.5,1.2,9.1,1.8,13.5c0.1,0.6,0.1,1.3,0.3,1.9
	c0.7,4.9,1.3,9.7,2.1,14.6c0,0.1,0,0.4,0.1,0.6c42.4,280.3,176,541.6,381.8,740.3c10.3,10,20.7,19.8,31.4,29.3
	C3224.3,2284.5,3247.7,2292.9,3270.7,2292.9z M2972.1,1304.8c0-164.8,134-298.9,298.7-298.9c164.7,0,298.7,134,298.7,298.9
	c0,164.7-134,298.7-298.7,298.7C3106.2,1603.7,2972.1,1469.7,2972.1,1304.8z"/>
</svg>
