<?xml version="1.0" encoding="utf-8"?>
<!-- Generator: Adobe Illustrator 17.1.0, SVG Export Plug-In . SVG Version: 6.00 Build 0)  -->
<!DOCTYPE svg PUBLIC "-//W3C//DTD SVG 1.1//EN" "http://www.w3.org/Graphics/SVG/1.1/DTD/svg11.dtd">
<svg version="1.1" xmlns="http://www.w3.org/2000/svg" xmlns:xlink="http://www.w3.org/1999/xlink" x="0px" y="0px"
	 viewBox="2779.3 789.6 1236.1 1236.1" enable-background="new 2779.3 789.6 1236.1 1236.1" xml:space="preserve">
<g id="Calque_2" display="none">
	<linearGradient id="SVGID_1_" gradientUnits="userSpaceOnUse" x1="-2744.5466" y1="-557.6408" x2="8566.0498" y2="3763.8606">
		<stop  offset="1.102941e-002" style="stop-color:#8289B5"/>
		<stop  offset="1" style="stop-color:#6FC4CA"/>
	</linearGradient>
	<rect x="-3186.4" y="0" display="inline" fill="url(#SVGID_1_)" width="11815.3" height="3061.4"/>
</g>
<g id="Calque_1" display="none">
	<g display="inline">
		<g>
			
				<path fill="none" stroke="#FBFBFB" stroke-width="90" stroke-linecap="round" stroke-linejoin="round" stroke-dasharray="300" d="
				M6480.5,4802.2c21.6-19.4,43.2-36.7,69.1-51.9"/>
			
				<path fill="none" stroke="#FBFBFB" stroke-width="90" stroke-linecap="round" stroke-linejoin="round" stroke-dasharray="300" d="
				M6724.6,4700.7c207.4-10.8,423.5,140.4,367.3,507.7c-84.3,555.2,417,633,592,397.5"/>
			
				<path fill="none" stroke="#FBFBFB" stroke-width="90" stroke-linecap="round" stroke-linejoin="round" stroke-dasharray="300" d="
				M7724.9,5523.8c8.6-25.9,15.1-54,15.1-84.3"/>
		</g>
	</g>
	<g display="inline">
		
			<line fill="none" stroke="#FBFBFB" stroke-width="90" stroke-linecap="round" stroke-linejoin="round" stroke-miterlimit="10" x1="6385.4" y1="5091.7" x2="5890.7" y2="5037.7"/>
		
			<line fill="none" stroke="#FBFBFB" stroke-width="90" stroke-linecap="round" stroke-linejoin="round" stroke-miterlimit="10" x1="6165.1" y1="4815.2" x2="6111.1" y2="5312.1"/>
	</g>
	<g display="inline">
		
			<line fill="none" stroke="#FBFBFB" stroke-width="90" stroke-linecap="round" stroke-linejoin="round" stroke-miterlimit="10" x1="8176.5" y1="5018.2" x2="7692.5" y2="5139.2"/>
		
			<line fill="none" stroke="#FBFBFB" stroke-width="90" stroke-linecap="round" stroke-linejoin="round" stroke-miterlimit="10" x1="7871.9" y1="4836.8" x2="7995" y2="5320.7"/>
	</g>
	<g display="inline">
		<g>
			<defs>
				<path id="SVGID_2_" d="M2355.7,1324.8c0-167.5-135.7-303.2-303.2-303.2s-303.2,135.7-303.2,303.2c0,7.5,2.2,35.9,2.8,40.7
					c29.7,240.5,300.4,443.5,300.4,443.5s270.7-203,300.4-443.5C2353.5,1360.6,2355.7,1332.2,2355.7,1324.8z"/>
			</defs>
			<clipPath id="SVGID_3_">
				<use xlink:href="#SVGID_2_"  overflow="visible"/>
			</clipPath>
			<g clip-path="url(#SVGID_3_)">
				<defs>
					<path id="SVGID_4_" d="M2517.7,1650.2c0-38.2-15.9-72.6-41.4-97.2c-1.1-1.1-2.2-2.2-3.3-3.3c-1.1-1.1-2.2-2.2-3.3-3.3
						c-1.1-1.1-2.2-2.2-3.3-3.3c-1.1-1.1-2.2-2.2-3.3-3.3c-1.1-1.1-2.2-2.2-3.3-3.3c-1.1-1.1-2.2-2.2-3.3-3.3
						c-1.1-1.1-2.2-2.2-3.3-3.3c-1.1-1.1-2.2-2.2-3.3-3.3c-1.1-1.1-2.2-2.2-3.3-3.3c-1.1-1.1-2.2-2.2-3.3-3.3
						c-1.1-1.1-2.2-2.2-3.3-3.3c-1.1-1.1-2.2-2.2-3.3-3.3c-1.1-1.1-2.2-2.2-3.3-3.3c-1.1-1.1-2.2-2.2-3.3-3.3
						c-1.1-1.1-2.2-2.2-3.3-3.3c-1.1-1.1-2.2-2.2-3.3-3.3c-1.1-1.1-2.1-2.2-3.3-3.3c-1.1-1.1-2.2-2.2-3.3-3.3
						c-1.1-1.1-2.2-2.2-3.3-3.3c-1.1-1.1-2.2-2.2-3.3-3.3c-1.1-1.1-2.2-2.2-3.3-3.3c-1.1-1.1-2.2-2.2-3.3-3.3
						c-1.1-1.1-2.2-2.2-3.3-3.3c-1.1-1.1-2.2-2.2-3.3-3.3c-1.1-1.1-2.2-2.2-3.3-3.3c-1.1-1.1-2.1-2.2-3.3-3.3
						c-1.1-1.1-2.2-2.2-3.3-3.3c-1.1-1.1-2.2-2.2-3.3-3.3c-1.1-1.1-2.2-2.2-3.3-3.3c-1.1-1.1-2.2-2.2-3.3-3.3
						c-1.1-1.1-2.2-2.2-3.3-3.3c-1.1-1.1-2.2-2.2-3.3-3.3c-1.1-1.1-2.2-2.2-3.3-3.3c-1.1-1.1-2.2-2.2-3.3-3.3
						c-1.1-1.1-2.2-2.2-3.3-3.3c-1.1-1.1-2.2-2.2-3.3-3.3c-1.1-1.1-2.2-2.2-3.3-3.3c-1.1-1.1-2.2-2.2-3.3-3.3
						c-1.1-1.1-2.2-2.2-3.3-3.3c-1.1-1.1-2.2-2.2-3.3-3.3c-1.1-1.1-2.2-2.2-3.3-3.3c-1.1-1.1-2.2-2.2-3.3-3.3
						c-1.1-1.1-2.2-2.2-3.3-3.3c-1.1-1.1-2.2-2.2-3.3-3.3c-1.1-1.1-2.2-2.2-3.3-3.3c-1.1-1.1-2.2-2.2-3.3-3.3
						c-1.1-1.1-2.2-2.2-3.3-3.3c-1.1-1.1-2.2-2.2-3.3-3.3c-1.1-1.1-2.2-2.2-3.3-3.3c-1.1-1.1-2.2-2.2-3.3-3.3
						c-1.1-1.1-2.2-2.2-3.3-3.3c-1.1-1.1-2.2-2.2-3.3-3.3c-1.1-1.1-2.2-2.2-3.3-3.3c-1.1-1.1-2.1-2.2-3.3-3.3
						c-1.1-1.1-2.2-2.2-3.3-3.3c-1.1-1.1-2.2-2.2-3.3-3.3c-1.1-1.1-2.2-2.2-3.3-3.3c-1.1-1.1-2.2-2.2-3.3-3.3
						c-1.1-1.1-2.2-2.2-3.3-3.3c-1.1-1.1-2.2-2.2-3.3-3.3c-1.1-1.1-2.2-2.2-3.3-3.3c-1.1-1.1-2.2-2.2-3.3-3.3
						c-1.1-1.1-2.1-2.2-3.3-3.3c-1.1-1.1-2.2-2.2-3.3-3.3c-1.1-1.1-2.2-2.2-3.3-3.3c-1.1-1.1-2.2-2.2-3.3-3.3
						c-1.1-1.1-2.2-2.2-3.3-3.3c-1.1-1.1-2.2-2.2-3.3-3.3c-1.1-1.1-2.2-2.2-3.3-3.3c-1.1-1.1-2.2-2.2-3.3-3.3
						c-1.1-1.1-2.2-2.2-3.3-3.3c-1.1-1.1-2.2-2.2-3.3-3.3c-1.1-1.1-2.2-2.2-3.3-3.3c-1.1-1.1-2.2-2.2-3.3-3.3
						c-1.1-1.1-2.2-2.2-3.3-3.3c-1.1-1.1-2.2-2.2-3.3-3.3c-1.1-1.1-2.2-2.2-3.3-3.3c-1.1-1.1-2.2-2.2-3.3-3.3
						c-1.1-1.1-2.2-2.2-3.3-3.3c-1.1-1.1-2.2-2.2-3.3-3.3c-1.1-1.1-2.2-2.2-3.3-3.3c-1.1-1.1-2.2-2.2-3.3-3.3
						c-1.1-1.1-2.2-2.2-3.3-3.3c-1.1-1.1-2.2-2.2-3.3-3.3c-1.1-1.1-2.2-2.2-3.3-3.3c-1.1-1.1-2.2-2.2-3.3-3.3
						c-1.1-1.1-2.2-2.2-3.3-3.3c-1.1-1.1-2.2-2.2-3.3-3.3c-1.1-1.1-2.2-2.2-3.3-3.3c-1.1-1.1-2.2-2.2-3.3-3.3
						c-1.1-1.1-2.2-2.2-3.3-3.3c-1.1-1.1-2.2-2.2-3.3-3.3c-1.1-1.1-2.2-2.2-3.3-3.3c-1.1-1.1-2.2-2.2-3.3-3.3
						c-1.1-1.1-2.2-2.2-3.3-3.3c-1.1-1.1-2.2-2.2-3.3-3.3c-1.1-1.1-2.2-2.2-3.3-3.3c-1.1-1.1-2.2-2.2-3.3-3.3
						c-1.1-1.1-2.2-2.2-3.3-3.3c-1.1-1.1-2.2-2.2-3.3-3.3c-24.6-25.5-59.1-41.4-97.2-41.4c-74.6,0-135.4,60.7-135.4,135.4
						c0,95.1,38.3,186.5,105.6,253.2c1.1,1.1,2.2,2.2,3.3,3.3c1.1,1.1,2.2,2.2,3.3,3.3c1.1,1.1,2.2,2.2,3.3,3.3
						c1.1,1.1,2.2,2.2,3.3,3.3c1.1,1.1,2.2,2.2,3.3,3.3c1.1,1.1,2.2,2.2,3.3,3.3c1.1,1.1,2.2,2.2,3.3,3.3c1.1,1.1,2.2,2.2,3.3,3.3
						c1.1,1.1,2.2,2.2,3.3,3.3c1.1,1.1,2.2,2.2,3.3,3.3c1.1,1.1,2.2,2.2,3.3,3.3c1.1,1.1,2.2,2.2,3.3,3.3c1.1,1.1,2.2,2.2,3.3,3.3
						c1.1,1.1,2.2,2.2,3.3,3.3c1.1,1.1,2.2,2.2,3.3,3.3c1.1,1.1,2.2,2.2,3.3,3.3c1.1,1.1,2.2,2.2,3.3,3.3c1.1,1.1,2.2,2.2,3.3,3.3
						c1.1,1.1,2.2,2.2,3.3,3.3c1.1,1.1,2.2,2.2,3.3,3.3c1.1,1.1,2.2,2.2,3.3,3.3c1.1,1.1,2.2,2.2,3.3,3.3c1.1,1.1,2.2,2.2,3.3,3.3
						c1.1,1.1,2.2,2.2,3.3,3.3c1.1,1.1,2.2,2.2,3.3,3.3c1.1,1.1,2.2,2.2,3.3,3.3c1.1,1.1,2.2,2.2,3.3,3.3c1.1,1.1,2.2,2.2,3.3,3.3
						c1.1,1.1,2.2,2.2,3.3,3.3c1.1,1.1,2.2,2.2,3.3,3.3c1.1,1.1,2.2,2.2,3.3,3.3c1.1,1.1,2.2,2.2,3.3,3.3c1.1,1.1,2.2,2.2,3.3,3.3
						c1.1,1.1,2.2,2.2,3.3,3.3c1.1,1.1,2.2,2.2,3.3,3.3c1.1,1.1,2.2,2.2,3.3,3.3c1.1,1.1,2.2,2.2,3.3,3.3c1.1,1.1,2.2,2.2,3.3,3.3
						c1.1,1.1,2.2,2.2,3.3,3.3c1.1,1.1,2.2,2.2,3.3,3.3c1.1,1.1,2.2,2.2,3.3,3.3c1.1,1.1,2.2,2.2,3.3,3.3c1.1,1.1,2.2,2.2,3.3,3.3
						c1.1,1.1,2.2,2.2,3.3,3.3c1.1,1.1,2.2,2.2,3.3,3.3c1.1,1.1,2.2,2.2,3.3,3.3c1.1,1.1,2.2,2.2,3.3,3.3c1.1,1.1,2.2,2.2,3.3,3.3
						c1.1,1.1,2.2,2.2,3.3,3.3c1.1,1.1,2.2,2.2,3.3,3.3c1.1,1.1,2.2,2.2,3.3,3.3c1.1,1.1,2.2,2.2,3.3,3.3c1.1,1.1,2.2,2.2,3.3,3.3
						c1.1,1.1,2.2,2.2,3.3,3.3c1.1,1.1,2.2,2.2,3.3,3.3c1.1,1.1,2.2,2.2,3.3,3.3c1.1,1.1,2.2,2.2,3.3,3.3c1.1,1.1,2.2,2.2,3.3,3.3
						c1.1,1.1,2.2,2.2,3.3,3.3c1.1,1.1,2.2,2.2,3.3,3.3c1.1,1.1,2.2,2.2,3.3,3.3c1.1,1.1,2.2,2.2,3.3,3.3c1.1,1.1,2.2,2.2,3.3,3.3
						c1.1,1.1,2.2,2.2,3.3,3.3c1.1,1.1,2.2,2.2,3.3,3.3c1.1,1.1,2.2,2.2,3.3,3.3c1.1,1.1,2.2,2.2,3.3,3.3c1.1,1.1,2.2,2.2,3.3,3.3
						c1.1,1.1,2.2,2.2,3.3,3.3c1.1,1.1,2.2,2.2,3.3,3.3c1.1,1.1,2.2,2.2,3.3,3.3c1.1,1.1,2.2,2.2,3.3,3.3c1.1,1.1,2.2,2.2,3.3,3.3
						c1.1,1.1,2.2,2.2,3.3,3.3c1.1,1.1,2.2,2.2,3.3,3.3c1.1,1.1,2.2,2.2,3.3,3.3c1.1,1.1,2.2,2.2,3.3,3.3c1.1,1.1,2.2,2.2,3.3,3.3
						c1.1,1.1,2.2,2.2,3.3,3.3c1.1,1.1,2.2,2.2,3.3,3.3c1.1,1.1,2.2,2.2,3.3,3.3c1.1,1.1,2.2,2.2,3.3,3.3c1.1,1.1,2.2,2.2,3.3,3.3
						c1.1,1.1,2.2,2.2,3.3,3.3c1.1,1.1,2.2,2.2,3.3,3.3c1.1,1.1,2.2,2.2,3.3,3.3c1.1,1.1,2.2,2.2,3.3,3.3c1.1,1.1,2.2,2.2,3.3,3.3
						c1.1,1.1,2.2,2.2,3.3,3.3c1.1,1.1,2.2,2.2,3.3,3.3c1.1,1.1,2.2,2.2,3.3,3.3c1.1,1.1,2.2,2.2,3.3,3.3c1.1,1.1,2.2,2.2,3.3,3.3
						c1.1,1.1,2.2,2.2,3.3,3.3c1.1,1.1,2.2,2.2,3.3,3.3c1.1,1.1,2.2,2.2,3.3,3.3c1.1,1.1,2.2,2.2,3.3,3.3c1.1,1.1,2.2,2.2,3.3,3.3
						c1.1,1.1,2.2,2.2,3.3,3.3c1.1,1.1,2.2,2.2,3.3,3.3c4.9,5,9.9,9.8,15.1,14.5c5.1,4.6,11.5,6.9,17.9,6.9c7.3,0,14.5-3,19.8-8.8
						c9.9-10.9,9-27.8-1.9-37.6c-31.7-28.6-56.6-63.4-73.7-101.7c17,7.8,35.9,12.2,55.8,12.2
						C2457,1785.6,2517.7,1724.8,2517.7,1650.2z"/>
				</defs>
				<linearGradient id="SVGID_5_" gradientUnits="userSpaceOnUse" x1="1950.5701" y1="1264.3041" x2="2253.2444" y2="1566.9784">
					<stop  offset="1.102941e-002" style="stop-color:#FAFAFA;stop-opacity:0.1"/>
					<stop  offset="1" style="stop-color:#FAFAFA;stop-opacity:0"/>
				</linearGradient>
				<use xlink:href="#SVGID_4_"  overflow="visible" fill="url(#SVGID_5_)"/>
				<clipPath id="SVGID_6_">
					<use xlink:href="#SVGID_4_"  overflow="visible"/>
				</clipPath>
				<linearGradient id="SVGID_7_" gradientUnits="userSpaceOnUse" x1="1954.8339" y1="1260.0403" x2="2257.5083" y2="1562.7146">
					<stop  offset="1.102941e-002" style="stop-color:#FAFAFA;stop-opacity:0.3"/>
					<stop  offset="1" style="stop-color:#FAFAFA;stop-opacity:0"/>
				</linearGradient>
				<path clip-path="url(#SVGID_6_)" fill="url(#SVGID_7_)" d="M2355.7,1324.8c0-167.5-135.7-303.2-303.2-303.2
					s-303.2,135.7-303.2,303.2c0,7.5,2.2,35.9,2.8,40.7c29.7,240.5,300.4,443.5,300.4,443.5s270.7-203,300.4-443.5
					C2353.5,1360.6,2355.7,1332.2,2355.7,1324.8z"/>
			</g>
		</g>
		<g>
			<path fill="#FAFAFA" d="M2052.5,1835.6c-5.6,0-11.2-1.8-16-5.3c-11.4-8.6-280.1-212.6-310.9-461.5c-0.7-5.6-3-35.2-3-44
				c0-181.9,148-329.9,329.9-329.9s329.9,148,329.9,329.9c0,8.8-2.3,38.4-3,44.2c-30.7,248.7-299.4,452.8-310.8,461.3
				C2063.7,1833.8,2058.1,1835.6,2052.5,1835.6z M2052.5,1048.2c-152.5,0-276.5,124.1-276.5,276.5c0,6,2,33.2,2.6,37.2
				c23.9,193.8,216.6,365.6,274,412.9c57.3-47.3,250.1-219.4,274-412.7c0.5-4.3,2.6-31.4,2.6-37.4
				C2329,1172.3,2204.9,1048.2,2052.5,1048.2z"/>
		</g>
		<g>
			<path fill="#FAFAFA" d="M2052.5,1185c-74.6,0-135.4,60.7-135.4,135.4c0,100.6,42.8,196.9,117.4,264.4c5.1,4.6,11.5,6.9,17.9,6.9
				c7.3,0,14.5-3,19.8-8.8c9.9-10.9,9-27.8-1.9-37.6c-31.7-28.6-56.6-63.4-73.7-101.7c17,7.8,35.9,12.2,55.8,12.2
				c74.6,0,135.4-60.7,135.4-135.4C2187.8,1245.7,2127.1,1185,2052.5,1185z M2052.5,1402.4c-45.2,0-82-36.8-82-82
				c0-45.3,36.8-82.1,82-82.1c45.2,0,82,36.8,82,82.1C2134.5,1365.6,2097.7,1402.4,2052.5,1402.4z"/>
		</g>
	</g>
	
		<rect x="1464.3" y="791.2" display="inline" fill="none" stroke="#FAFAFA" stroke-miterlimit="10" width="1236.1" height="1236.1"/>
</g>
<g id="Calque_3" display="none">
</g>
<g id="loupe" display="none">
	<path display="inline" fill="#FAFAFA" d="M-1718.8,1744.2l-199.1-207c52.1-57.2,80.6-130.6,80.6-208.1
		c0-170.7-138.9-309.5-309.5-309.5s-309.5,138.9-309.5,309.5s138.9,309.5,309.5,309.5c36.7,0,72.6-6.4,106.7-18.9
		c28.8-10.6,55.7-25.4,80.1-44l199.9,207.9c5.2,5.6,12.7,8.8,20.7,8.8c7.4,0,14.4-2.9,19.7-8.1c5.4-5.2,8.5-12.2,8.7-19.8
		C-1710.7,1757-1713.5,1749.8-1718.8,1744.2z M-1894.3,1328.9c0,139.2-113.3,252.5-252.5,252.5s-252.5-113.3-252.5-252.5
		c0-139.2,113.3-252.5,252.5-252.5S-1894.3,1189.7-1894.3,1328.9z"/>
	<rect x="-2701.7" y="788" display="inline" fill="none" width="1236.1" height="1236.1"/>
</g>
<g id="back" display="none">
	<path display="inline" fill="#FAFAFA" d="M-896.6,1415.3c-1.6-1.6-2.5-3.7-2.5-6c0-2.3,0.9-4.4,2.5-6l331.4-331.4
		c12.6-12.6,12.7-33.2,0.1-45.9l-0.3-0.3c-6.2-6.2-14.3-9.6-23.1-9.6c-8.7,0-16.8,3.4-23,9.5l-361.7,361.7
		c-12.2,12.2-12.2,32,0,44.2l361.7,361.7c6.1,6.1,14.3,9.5,23,9.5c8.7,0,16.9-3.4,23.1-9.6l0.4-0.4c12.6-12.7,12.5-33.3-0.1-45.9
		L-896.6,1415.3z"/>
	<rect x="-1387.1" y="791.2" display="inline" fill="none" width="1236.1" height="1236.1"/>
</g>
<g id="close" display="none">
	<path display="inline" fill="#FAFAFA" d="M704.2,1405.7l322.2-321.5c13.2-13.2,13.2-34.6,0-47.8l-0.7-0.7
		c-13.2-13.2-34.5-13.2-47.7,0l-322.3,321.9l-320.7-320.3c-13.2-13.2-34.5-13.2-47.7,0l-0.7,0.7c-13.2,13.2-13.2,34.6,0,47.8
		l320.6,319.8l-320.5,320.1c-13.2,13.2-13.2,34.7,0.1,47.8l0.5,0.5c13.2,13.1,34.5,13,47.6-0.1l320.8-320l322.4,321.6
		c13.1,13.1,34.4,13.1,47.6,0.1l0.5-0.5c13.3-13.2,13.3-34.6,0.1-47.8L704.2,1405.7z"/>
	<rect x="38.6" y="787.7" display="inline" fill="none" width="1236.1" height="1236.1"/>
</g>
<g id="off">
	<g>
		<path fill="#838AB6" d="M3779.5,1390.1l-123.7-123.7c-6.3-6.2-14.6-9.7-23.4-9.7c-8.8,0-17.1,3.4-23.4,9.7l-0.4,0.4
			c-12.9,12.9-12.9,33.9,0,46.8l60.7,60.7H3318c-18.2,0-33.1,14.8-33.1,33.1v0.6c0,18.2,14.8,33.1,33.1,33.1h351.4l-60.7,60.7
			c-12.9,12.9-12.9,33.9,0,46.8l0.4,0.4c6.3,6.3,14.6,9.7,23.4,9.7c8.8,0,17.1-3.4,23.4-9.7l123.7-123.7c4.7-4.7,7.3-11,7.3-17.6
			S3784.2,1394.8,3779.5,1390.1z"/>
		<path fill="#838AB6" d="M3661.2,1623.6h-0.7c-9,0-17.7,3.7-23.9,10.2c-1.6,1.7-3.2,3.3-4.8,4.9c-61.7,61.7-143.7,95.7-231,95.7
			c-87.3,0-169.3-34-231-95.7c-61.4-61.4-95.2-143.4-95.2-231c0-87.6,33.8-169.6,95.2-231c61.7-61.7,143.8-95.7,231-95.7
			c87.2,0,169.3,34,231,95.7c1.6,1.6,3.2,3.2,4.8,4.9c6.2,6.5,14.9,10.2,23.9,10.2h0.7c13.5,0,25.2-7.7,30.5-20.1
			c5.3-12.4,2.8-26.1-6.5-35.8c-36.3-38-79.1-67.9-127.1-88.9c-49.7-21.7-102.6-32.7-157.3-32.7c-53.1,0-104.7,10.4-153.2,31
			c-46.8,19.8-88.9,48.2-124.9,84.4c-36.1,36.2-64.5,78.5-84.2,125.5c-20.5,48.7-30.7,100.4-30.6,153.7
			c0.1,52.6,10.7,103.8,31.5,152.1c20,46.6,48.5,88.6,84.7,124.7c36.2,36.1,78.2,64.5,124.9,84.4c48.4,20.6,99.5,31,152,31
			c1.4,0,2.8,0,4.3,0c53.8-0.6,105.9-11.9,154.7-33.5c47.2-20.9,89.3-50.5,125.2-88c9.3-9.8,11.8-23.5,6.5-35.9
			C3686.4,1631.3,3674.7,1623.6,3661.2,1623.6z"/>
	</g>
	<rect x="2779.3" y="789.6" fill="none" width="1236.1" height="1236.1"/>
</g>
<g id="ride" display="none">
	<g display="inline">
		<path fill="#FAFAFA" d="M4708.7,1171.2c12.3,0.6,21.3,1.9,30,4.2c2.5,0.7,5.1,1,7.7,1c13.8,0,25.8-9.3,29.4-22.6
			c2.1-7.8,1-16-3.1-23c-4.1-7-10.7-12-18.5-14.1c-16.4-4.3-31.2-5.5-42.3-6.1c-0.5,0-1.1,0-1.6,0c-16.1,0-29.5,12.6-30.3,28.8
			c-0.5,8.6,2.8,17,8.9,23.1C4694.1,1167.7,4701.2,1170.8,4708.7,1171.2z"/>
		<path fill="#FAFAFA" d="M4793.3,1206.1c1.8,1.6,3.5,3.2,5.2,4.9c23.7,23.7,36.4,53.5,36,83.9c-0.1,8.3,3,16.1,8.9,22
			c5.6,5.6,13.1,8.8,21,8.9l0.5,0c16.5,0,30.1-13.4,30.4-29.9c0.4-24.2-4.5-47.9-14.4-70.6c-9.2-21.1-22.5-40.3-39.4-57.2
			c-2.4-2.4-4.9-4.8-7.5-7.1c-5.6-5-12.8-7.8-20.3-7.8c-8.6,0-16.8,3.7-22.6,10C4779.9,1175.7,4780.9,1194.9,4793.3,1206.1z"/>
		<path fill="#FAFAFA" d="M4749.8,1691c-4.9-3.5-9.5-7.5-13.7-11.7c-19.8-19.8-31.2-45.6-32.1-72.5c-0.5-16.5-13.8-29.4-30.3-29.4
			c-0.3,0-0.6,0-1,0c-8.1,0.3-15.6,3.7-21.2,9.6s-8.5,13.6-8.2,21.7c1.3,42.4,19,82.7,49.8,113.5c6.5,6.5,13.5,12.5,20.9,17.9
			c5.2,3.8,11.4,5.8,17.9,5.8c9.7,0,18.9-4.7,24.6-12.5c4.8-6.6,6.7-14.6,5.5-22.6C4760.7,1702.8,4756.4,1695.7,4749.8,1691z"/>
		<path fill="#FAFAFA" d="M4835.3,1386.8c-0.2-0.2-0.5-0.5-0.7-0.7c-5.7-5.3-13-8.2-20.8-8.2c-8.4,0-16.4,3.5-22.1,9.6
			c-1.6,1.7-3.3,3.5-5.1,5.2c-9.6,9.6-20.7,19-33,28c-15.5,11.4-29.6,23.4-41.9,35.8c-5.4,5.4-10.5,10.9-15.2,16.4
			c-10.3,12-9.6,30.1,1.5,41.3c0.5,0.5,1.1,1.1,1.7,1.6c5.5,4.7,12.5,7.3,19.8,7.3c8.9,0,17.3-3.9,23-10.6
			c3.8-4.4,7.9-8.8,12.1-13.1c10.2-10.2,22-20.2,35-29.8c14.7-10.8,28.2-22.3,39.9-34c2.2-2.2,4.3-4.4,6.4-6.6
			C4847.2,1417,4846.9,1398.4,4835.3,1386.8z"/>
		<path fill="#FAFAFA" d="M4896.3,1677.7c-8.1,0-15.7,3.2-21.5,8.9c-5.6,5.6-12.5,10.3-21.8,15c-15,7.5-21.1,25.8-13.6,40.7
			c1.5,2.9,3.4,5.6,5.7,7.9c5.7,5.7,13.5,8.9,21.5,8.9c4.7,0,9.4-1.1,13.6-3.2c15.1-7.6,27.4-16.2,37.6-26.4
			c11.8-11.8,11.8-31.1,0-42.9C4912.1,1680.9,4904.4,1677.7,4896.3,1677.7z"/>
		<path fill="#FAFAFA" d="M4612.1,1020.1c-6.9,0-13.6,2.4-19,6.7l-59,47.5l-46.8-58.3c-5.8-7.2-14.4-11.3-23.7-11.3
			c-6.9,0-13.6,2.4-19,6.7c-6.3,5.1-10.3,12.3-11.2,20.4c-0.9,8.1,1.4,16,6.5,22.3l46.9,58.3l-58.4,46.9
			c-13,10.5-15.1,29.6-4.6,42.7c0.7,0.9,1.4,1.7,2.2,2.5c5.7,5.7,13.3,8.9,21.5,8.9c6.9,0,13.6-2.4,19-6.7l58.3-46.9l46.9,58.4
			c0.7,0.9,1.4,1.7,2.2,2.5c5.7,5.7,13.3,8.9,21.5,8.9c6.9,0,13.6-2.4,19-6.7c6.3-5.1,10.3-12.3,11.2-20.4c0.9-8.1-1.4-16-6.5-22.3
			l-46.9-58.4l59.1-47.5c6.3-5.1,10.3-12.3,11.2-20.4c0.9-8.1-1.4-16-6.5-22.3C4630,1024.2,4621.3,1020.1,4612.1,1020.1z"/>
		<path fill="#FAFAFA" d="M5182.2,1705.2c-2-7.9-6.9-14.5-13.8-18.7l-64.9-38.9l38.5-64.9c4.1-7,5.3-15.1,3.3-23
			c-2-7.9-6.9-14.5-13.9-18.6c-4.7-2.8-10.1-4.3-15.5-4.3c-10.7,0-20.7,5.7-26.1,14.9l-38.4,64.6l-63.9-38.3
			c-4.7-2.8-10.1-4.3-15.6-4.3c-10.6,0-20.6,5.7-26.1,14.7c-7.2,12-5.3,27.2,4.6,37.1c1.8,1.8,3.7,3.3,5.9,4.6l64.1,38.5l-38.4,64.7
			c-7.1,12-5.2,27.2,4.6,37c1.8,1.8,3.8,3.3,6,4.6c4.7,2.8,10.1,4.3,15.5,4.3c10.7,0,20.7-5.7,26.1-14.9l38.3-64.5l64.7,38.8
			c4.7,2.8,10.1,4.3,15.6,4.3c10.6,0,20.6-5.6,26.1-14.7C5183,1721.3,5184.2,1713.1,5182.2,1705.2z"/>
	</g>
	<rect x="4182" y="773.8" display="inline" fill="none" stroke="#FAFAFA" stroke-miterlimit="10" width="1236.1" height="1236.1"/>
</g>
<g id="hour" display="none">
	<g display="inline">
		<path fill="#FAFAFA" fill-opacity="0.9" d="M6321.8,1503.8l-149-87.8v-174.3c0-20.4-16.6-36.9-36.9-36.9h-2.5
			c-20.4,0-36.9,16.6-36.9,36.9v213.6l187.3,112.4c5.7,3.4,12.3,5.3,19,5.3c0,0,0,0,0,0c12.9,0,25-6.9,31.7-17.9l0.3-0.5
			c5.1-8.5,6.6-18.5,4.1-28.1S6330.4,1508.8,6321.8,1503.8z"/>
		<path fill="#FAFAFA" fill-opacity="0.9" d="M6516.5,1254.2c-20.4-48-49.6-91.2-86.7-128.4c-37.2-37.2-80.3-66.3-128.4-86.7
			c-49.8-21.1-102.5-31.9-156.8-31.9c-54.7,0-107.8,10.7-157.6,31.9c-48.1,20.4-91.3,49.6-128.3,86.8c-37,37.1-66,80.3-86.3,128.4
			c-21,49.7-31.6,102.5-31.6,156.8s10.6,107.1,31.6,156.8c20.3,48.1,49.3,91.3,86.3,128.4c37,37.2,80.2,66.4,128.3,86.8
			c49.9,21.1,102.9,31.9,157.6,31.9s107.8-10.7,157.6-31.9c48.1-20.4,91.3-49.6,128.3-86.8c37-37.1,66-80.3,86.3-128.4
			c21-49.7,31.6-102.5,31.6-156.8C6548.4,1356.7,6537.6,1303.9,6516.5,1254.2z M6144.5,1743.9c-183.6,0-333-149.4-333-333
			s149.4-333,333-333s333,149.4,333,333S6328.1,1743.9,6144.5,1743.9z"/>
	</g>
	
		<rect x="5526.5" y="792.9" display="inline" fill="none" stroke="#FAFAFA" stroke-miterlimit="10" width="1236.1" height="1236.1"/>
</g>
</svg>
