<?xml version="1.0" encoding="utf-8"?>
<!-- Generator: Adobe Illustrator 17.1.0, SVG Export Plug-In . SVG Version: 6.00 Build 0)  -->
<!DOCTYPE svg PUBLIC "-//W3C//DTD SVG 1.1//EN" "http://www.w3.org/Graphics/SVG/1.1/DTD/svg11.dtd">
<svg version="1.1" id="Calque_1" xmlns="http://www.w3.org/2000/svg" xmlns:xlink="http://www.w3.org/1999/xlink" x="0px" y="0px"
	 viewBox="0 0 114.9 114.9" enable-background="new 0 0 114.9 114.9" xml:space="preserve">
<path fill="#838AB6" d="M93.6,55.9L82,44.4c-0.6-0.5-1.4-0.9-2.2-0.9c-0.9,0-1.6,0.3-2.2,0.9l0,0c-1.2,1.2-1.2,3.2,0,4.3l5.6,5.6
	H50.7c-1.7,0-3.1,1.4-3.1,3.1v0.1c0,1.7,1.4,3.1,3.1,3.1h32.6l-5.6,5.6c-1.2,1.2-1.2,3.2,0,4.3l0,0c0.6,0.6,1.4,0.9,2.2,0.9
	c0.9,0,1.6-0.3,2.2-0.9l11.5-11.5c0.5-0.5,0.7-1,0.7-1.6C94.3,56.9,94,56.3,93.6,55.9z"/>
<path fill="#838AB6" d="M82.6,77.5L82.6,77.5c-0.9,0-1.7,0.3-2.3,0.9c-0.2,0.2-0.3,0.3-0.5,0.5c-5.7,5.7-13.4,8.9-21.5,8.9
	s-15.7-3.2-21.5-8.9C31.1,73.2,28,65.6,28,57.4c0-8.1,3.2-15.8,8.8-21.5c5.7-5.7,13.4-8.9,21.5-8.9s15.7,3.2,21.5,8.9
	c0.2,0.2,0.3,0.3,0.5,0.5c0.5,0.6,1.4,0.9,2.2,0.9h0.1c1.2,0,2.3-0.7,2.9-1.9c0.5-1.2,0.2-2.4-0.6-3.3c-3.4-3.6-7.3-6.3-11.8-8.3
	c-4.6-2-9.5-3-14.6-3c-4.9,0-9.7,0.9-14.2,2.9c-4.3,1.9-8.3,4.5-11.6,7.8c-3.3,3.4-6,7.3-7.8,11.7c-1.9,4.6-2.9,9.4-2.9,14.3
	c0,4.9,1,9.7,2.9,14.2c1.9,4.3,4.5,8.2,7.9,11.6c3.4,3.3,7.3,6,11.6,7.8c4.5,1.9,9.3,2.9,14.2,2.9c0.2,0,0.2,0,0.4,0
	c5-0.1,9.8-1.1,14.4-3.1c4.4-1.9,8.3-4.7,11.6-8.2c0.9-0.9,1.1-2.2,0.6-3.3C85,78.2,83.9,77.5,82.6,77.5z"/>
<rect x="0.7" y="0.1" fill="none" width="114.9" height="114.9"/>
</svg>
