<?xml version="1.0" encoding="utf-8"?>
<!-- Generator: Adobe Illustrator 17.1.0, SVG Export Plug-In . SVG Version: 6.00 Build 0)  -->
<!DOCTYPE svg PUBLIC "-//W3C//DTD SVG 1.1//EN" "http://www.w3.org/Graphics/SVG/1.1/DTD/svg11.dtd">
<svg version="1.1" id="Calque_1" xmlns="http://www.w3.org/2000/svg" xmlns:xlink="http://www.w3.org/1999/xlink" x="0px" y="0px"
	 viewBox="0 0 336.2 129.2" enable-background="new 0 0 336.2 129.2" xml:space="preserve">
<g>
	<linearGradient id="SVGID_1_" gradientUnits="userSpaceOnUse" x1="6.0031" y1="79.914" x2="335.3425" y2="79.914">
		<stop  offset="1.102941e-002" style="stop-color:#838AB6"/>
		<stop  offset="0.2245" style="stop-color:#7DA2C1"/>
		<stop  offset="0.4347" style="stop-color:#78B2C7"/>
		<stop  offset="0.6375" style="stop-color:#73BDC9"/>
		<stop  offset="0.8297" style="stop-color:#71C3CB"/>
		<stop  offset="1" style="stop-color:#70C5CB"/>
	</linearGradient>
	<path fill="url(#SVGID_1_)" d="M32.8,30.6C14.7,30.6,0,45.4,0,63.4c0,24.4,10.4,47.7,28.5,64.1c1.2,1.1,2.8,1.7,4.3,1.7
		c1.8,0,3.5-0.7,4.8-2.1c2.4-2.6,2.2-6.7-0.5-9.1c-7.7-6.9-13.7-15.4-17.8-24.6c4.1,1.9,8.7,3,13.5,3c18.1,0,32.8-14.7,32.8-32.8
		C65.6,45.4,50.9,30.6,32.8,30.6z M32.8,83.3c-11,0-19.9-8.9-19.9-19.9c0-11,8.9-19.9,19.9-19.9s19.9,8.9,19.9,19.9
		C52.7,74.4,43.8,83.3,32.8,83.3z"/>
	<linearGradient id="SVGID_2_" gradientUnits="userSpaceOnUse" x1="6.0031" y1="47.9521" x2="335.3425" y2="47.9521">
		<stop  offset="1.102941e-002" style="stop-color:#838AB6"/>
		<stop  offset="0.2245" style="stop-color:#7DA2C1"/>
		<stop  offset="0.4347" style="stop-color:#78B2C7"/>
		<stop  offset="0.6375" style="stop-color:#73BDC9"/>
		<stop  offset="0.8297" style="stop-color:#71C3CB"/>
		<stop  offset="1" style="stop-color:#70C5CB"/>
	</linearGradient>
	<path fill="url(#SVGID_2_)" d="M89.8,82.9c-1.1,0-2.3,0-2.3-4.4V6.8c0-3.7-3-6.8-6.8-6.8C77.1,0,74,3.1,74,6.8v71.7
		c0,11.1,5.8,17.4,15.8,17.4c3.6,0,6.5-2.9,6.5-6.5S93.4,82.9,89.8,82.9z"/>
	<linearGradient id="SVGID_3_" gradientUnits="userSpaceOnUse" x1="6.0031" y1="63.5861" x2="335.3425" y2="63.5861">
		<stop  offset="1.102941e-002" style="stop-color:#838AB6"/>
		<stop  offset="0.2245" style="stop-color:#7DA2C1"/>
		<stop  offset="0.4347" style="stop-color:#78B2C7"/>
		<stop  offset="0.6375" style="stop-color:#73BDC9"/>
		<stop  offset="0.8297" style="stop-color:#71C3CB"/>
		<stop  offset="1" style="stop-color:#70C5CB"/>
	</linearGradient>
	<path fill="url(#SVGID_3_)" d="M155.6,57.9c0-12.6-7-27.2-26.7-27.2c-17.9,0-28.6,12.3-28.6,32.9c0,21.3,10.6,33,29.9,33
		c13,0,20.2-6.5,21.5-7.8c0.7-0.7,2.2-2.2,2.2-4.8c0-3.5-2.9-6.4-6.4-6.4c-1.6,0-2.7,0.5-3.9,1.3c-3.3,2.5-7,4.8-13.4,4.8
		c-9.3,0-15.1-5.5-16.1-15h33.8C155.6,68.7,155.6,61.4,155.6,57.9z M128.9,43.4c5.3,0,12.3,1.4,13.2,12.7h-27.8
		C115.3,49.8,118.9,43.4,128.9,43.4z"/>
	<linearGradient id="SVGID_4_" gradientUnits="userSpaceOnUse" x1="6.0031" y1="63.5861" x2="335.3425" y2="63.5861">
		<stop  offset="1.102941e-002" style="stop-color:#838AB6"/>
		<stop  offset="0.2245" style="stop-color:#7DA2C1"/>
		<stop  offset="0.4347" style="stop-color:#78B2C7"/>
		<stop  offset="0.6375" style="stop-color:#73BDC9"/>
		<stop  offset="0.8297" style="stop-color:#71C3CB"/>
		<stop  offset="1" style="stop-color:#70C5CB"/>
	</linearGradient>
	<path fill="url(#SVGID_4_)" d="M188.8,30.6c-14,0-20.5,7-23.2,11.2c-0.4,0.7-1,1.9-1,3.6c0,3.5,2.9,6.4,6.4,6.4
		c2,0,3.6-0.8,5.3-2.7c3.5-4,6.9-5.5,12.5-5.5c7.7,0,12.1,4,12.1,11.1v0.6h-15c-15.2,0-24.7,7.8-24.7,20.5
		c0,12.8,9.4,20.7,24.5,20.7c6.1,0,11.6-1.8,15.6-4.9c0.9,2.5,3.4,4.3,6.2,4.3c3.7,0,6.6-3,6.6-6.6V54.7
		C214.1,39.9,204.4,30.6,188.8,30.6z M186.4,83.8c-11.6,0-11.6-6-11.6-7.9c0-6.6,6-7.9,11.1-7.9h15v2.5
		C200.8,79.6,193.6,83.8,186.4,83.8z"/>
	<linearGradient id="SVGID_5_" gradientUnits="userSpaceOnUse" x1="6.0031" y1="63.5861" x2="335.3425" y2="63.5861">
		<stop  offset="1.102941e-002" style="stop-color:#838AB6"/>
		<stop  offset="0.2245" style="stop-color:#7DA2C1"/>
		<stop  offset="0.4347" style="stop-color:#78B2C7"/>
		<stop  offset="0.6375" style="stop-color:#73BDC9"/>
		<stop  offset="0.8297" style="stop-color:#71C3CB"/>
		<stop  offset="1" style="stop-color:#70C5CB"/>
	</linearGradient>
	<path fill="url(#SVGID_5_)" d="M268,77.5c-1.8,0-3,0.7-4.1,1.4c-2.8,2-6.6,4.8-12.9,4.8c-6.4,0-15-2.1-15-20.2
		c0-18,8.5-20.1,15-20.1c7.1,0,9.9,3.1,11.5,5c1.4,1.6,3.1,2.5,5.1,2.5c3.6,0,6.4-2.8,6.4-6.4c0-1.8-0.7-3-1.4-4
		c-1.2-1.6-7.8-9.8-21.6-9.8c-18.5,0-28.6,11.7-28.6,32.9c0,21.3,10.2,33,28.6,33c11.7,0,18.5-5.6,20.8-7.5c1.8-1.6,2.5-3.2,2.5-5.2
		C274.4,80.3,271.5,77.5,268,77.5z"/>
	<linearGradient id="SVGID_6_" gradientUnits="userSpaceOnUse" x1="6.0031" y1="47.9521" x2="335.3425" y2="47.9521">
		<stop  offset="1.102941e-002" style="stop-color:#838AB6"/>
		<stop  offset="0.2245" style="stop-color:#7DA2C1"/>
		<stop  offset="0.4347" style="stop-color:#78B2C7"/>
		<stop  offset="0.6375" style="stop-color:#73BDC9"/>
		<stop  offset="0.8297" style="stop-color:#71C3CB"/>
		<stop  offset="1" style="stop-color:#70C5CB"/>
	</linearGradient>
	<path fill="url(#SVGID_6_)" d="M310.3,30.6c-5.3,0-10.2,1.6-14,4.3V6.8c0-3.8-3-6.8-6.8-6.8c-3.8,0-6.8,3-6.8,6.8v82.4
		c0,3.8,3,6.8,6.8,6.8c3.8,0,6.8-3,6.8-6.8v-31c0-10.1,4.4-14.8,14-14.8c9.1,0,12.3,3.7,12.3,14v31.9c0,3.8,3,6.8,6.8,6.8
		c3.8,0,6.8-3,6.8-6.8V55.6C336.2,35,322.1,30.6,310.3,30.6z"/>
</g>
</svg>
