<?xml version="1.0" encoding="utf-8"?>
<!-- Generator: Adobe Illustrator 17.1.0, SVG Export Plug-In . SVG Version: 6.00 Build 0)  -->
<!DOCTYPE svg PUBLIC "-//W3C//DTD SVG 1.1//EN" "http://www.w3.org/Graphics/SVG/1.1/DTD/svg11.dtd">
<svg version="1.1" id="Calque_1" xmlns="http://www.w3.org/2000/svg" xmlns:xlink="http://www.w3.org/1999/xlink" x="0px" y="0px"
	 viewBox="0 0 114.9 114.9" enable-background="new 0 0 114.9 114.9" xml:space="preserve">
<path fill="#FBFBFB" d="M50,36.5c1.2,0.1,2,0.2,2.8,0.4c0.2,0.1,0.5,0.1,0.7,0.1c1.3,0,2.4-0.9,2.7-2.1c0.2-0.7,0.1-1.5-0.3-2.2
	c-0.4-0.7-1-1.1-1.7-1.3c-1.5-0.4-2.9-0.5-3.9-0.5c-0.1,0-0.1,0-0.2,0c-1.5,0-2.7,1.2-2.8,2.7c-0.1,0.8,0.2,1.5,0.9,2.2
	C48.6,36.2,49.3,36.5,50,36.5z"/>
<path fill="#FBFBFB" d="M57.8,39.7c0.2,0.2,0.3,0.3,0.5,0.5c2.2,2.2,3.4,4.9,3.3,7.8c0,0.8,0.3,1.5,0.9,2c0.5,0.5,1.2,0.9,1.9,0.9
	h0.1c1.5,0,2.8-1.2,2.9-2.8c0-2.2-0.4-4.5-1.3-6.6c-0.9-1.9-2.1-3.7-3.6-5.3c-0.2-0.2-0.5-0.5-0.7-0.7c-0.5-0.5-1.2-0.7-1.9-0.7
	c-0.8,0-1.5,0.3-2.1,0.9C56.6,36.9,56.7,38.7,57.8,39.7z"/>
<path fill="#FBFBFB" d="M53.7,84.8c-0.5-0.3-0.9-0.7-1.2-1.1c-1.9-1.9-2.9-4.3-3-6.7c-0.1-1.5-1.3-2.7-2.8-2.7h-0.1
	c-0.8,0-1.5,0.3-1.9,0.9c-0.5,0.5-0.8,1.2-0.8,2c0.2,3.9,1.8,7.7,4.6,10.5c0.6,0.6,1.2,1.2,1.9,1.7c0.5,0.4,1.1,0.5,1.7,0.5
	c0.9,0,1.8-0.5,2.3-1.2c0.5-0.6,0.6-1.4,0.5-2.1C54.8,85.9,54.4,85.3,53.7,84.8z"/>
<path fill="#FBFBFB" d="M61.7,56.6C61.7,56.5,61.7,56.5,61.7,56.6c-0.6-0.5-1.2-0.9-2-0.9s-1.5,0.3-2.1,0.9
	c-0.2,0.2-0.3,0.3-0.5,0.5c-0.9,0.9-1.9,1.8-3.1,2.6c-1.5,1.1-2.8,2.2-3.9,3.3c-0.5,0.5-1,1-1.4,1.5c-0.9,1.1-0.9,2.8,0.2,3.9
	c0.1,0.1,0.1,0.1,0.2,0.2c0.5,0.5,1.2,0.7,1.9,0.7c0.9,0,1.6-0.4,2.2-1c0.4-0.4,0.7-0.9,1.2-1.2c0.9-0.9,2-1.9,3.2-2.8
	c1.4-1,2.6-2.1,3.7-3.2c0.2-0.2,0.4-0.4,0.6-0.6C62.9,59.4,62.8,57.6,61.7,56.6z"/>
<path fill="#FBFBFB" d="M67.4,83.6c-0.8,0-1.5,0.3-2,0.9c-0.5,0.5-1.2,0.9-2,1.4c-1.4,0.7-1.9,2.4-1.2,3.8c0.2,0.2,0.3,0.5,0.5,0.7
	c0.5,0.5,1.2,0.9,2,0.9c0.5,0,0.9-0.1,1.2-0.3c1.4-0.7,2.6-1.5,3.5-2.5c1.1-1.1,1.1-2.9,0-4C68.9,83.9,68.1,83.6,67.4,83.6z"/>
<path fill="#FBFBFB" d="M41,22.5c-0.6,0-1.2,0.2-1.8,0.6l-5.5,4.4l-4.3-5.4c-0.5-0.7-1.3-1.1-2.2-1.1c-0.6,0-1.2,0.2-1.8,0.6
	c-0.6,0.5-0.9,1.2-1,1.9c-0.1,0.8,0.2,1.5,0.6,2.1l4.3,5.4L24,35.4c-1.2,1-1.4,2.8-0.5,3.9c0.1,0.1,0.2,0.2,0.2,0.2
	c0.5,0.5,1.2,0.9,2,0.9c0.6,0,1.2-0.2,1.8-0.6l5.4-4.3l4.3,5.4c0.1,0.1,0.2,0.2,0.2,0.2c0.5,0.5,1.2,0.9,2,0.9
	c0.6,0,1.2-0.2,1.8-0.6c0.6-0.5,0.9-1.2,1-1.9c0.1-0.8-0.2-1.5-0.6-2.1l-4.3-5.4l5.5-4.4c0.6-0.5,0.9-1.2,1-1.9
	c0.1-0.8-0.2-1.5-0.6-2.1C42.7,22.9,41.8,22.5,41,22.5z"/>
<path fill="#FBFBFB" d="M94,86.1c-0.2-0.7-0.6-1.3-1.3-1.7l-6-3.6l3.6-6c0.4-0.6,0.5-1.4,0.3-2.2c-0.2-0.7-0.6-1.3-1.3-1.7
	c-0.5-0.2-0.9-0.4-1.5-0.4c-1,0-1.9,0.5-2.4,1.4l-3.6,6l-6-3.6c-0.5-0.2-0.9-0.4-1.5-0.4c-1,0-1.9,0.5-2.4,1.4
	c-0.7,1.1-0.5,2.6,0.5,3.5c0.2,0.2,0.3,0.3,0.5,0.5l6,3.6l-3.6,6c-0.7,1.1-0.5,2.6,0.5,3.4c0.2,0.2,0.4,0.3,0.5,0.5
	c0.5,0.2,0.9,0.4,1.5,0.4c1,0,1.9-0.5,2.4-1.4l3.6-6l6,3.6c0.5,0.2,0.9,0.4,1.5,0.4c1,0,1.9-0.5,2.4-1.4C94,87.7,94.2,86.9,94,86.1z
	"/>
<rect x="1" y="-0.4" fill="none" width="114.9" height="114.9"/>
</svg>
