<?xml version="1.0" encoding="utf-8"?>
<!-- Generator: Adobe Illustrator 17.1.0, SVG Export Plug-In . SVG Version: 6.00 Build 0)  -->
<!DOCTYPE svg PUBLIC "-//W3C//DTD SVG 1.1//EN" "http://www.w3.org/Graphics/SVG/1.1/DTD/svg11.dtd">
<svg version="1.1" id="Calque_1" xmlns="http://www.w3.org/2000/svg" xmlns:xlink="http://www.w3.org/1999/xlink" x="0px" y="0px"
	 viewBox="0 0 114.9 114.9" enable-background="new 0 0 114.9 114.9" xml:space="preserve">
<path fill="#868ab6" d="M91.3,88.9L72.9,69.6c4.9-5.3,7.5-12.1,7.5-19.3c0-15.9-12.9-28.8-28.8-28.8S22.8,34.4,22.8,50.3
	S35.7,79,51.6,79c3.4,0,6.7-0.6,9.9-1.8c2.7-1,5.2-2.4,7.4-4.1l18.6,19.3c0.5,0.5,1.2,0.9,1.9,0.9c0.7,0,1.3-0.2,1.9-0.8
	c0.5-0.5,0.8-1.2,0.8-1.9C92.1,90,91.8,89.4,91.3,88.9z M75,50.3c0,12.9-10.5,23.4-23.4,23.4S28.2,63.2,28.2,50.3
	s10.5-23.4,23.4-23.4S75,37.4,75,50.3z"/>
<rect x="0" y="0" fill="none" width="114.9" height="114.9"/>
</svg>
