<?xml version="1.0" encoding="utf-8"?>
<!-- Generator: Adobe Illustrator 17.1.0, SVG Export Plug-In . SVG Version: 6.00 Build 0)  -->
<!DOCTYPE svg PUBLIC "-//W3C//DTD SVG 1.1//EN" "http://www.w3.org/Graphics/SVG/1.1/DTD/svg11.dtd">
<svg version="1.1" id="Calque_1" xmlns="http://www.w3.org/2000/svg" xmlns:xlink="http://www.w3.org/1999/xlink" x="0px" y="0px"
	 viewBox="0 0 114.9 114.9" enable-background="new 0 0 114.9 114.9" xml:space="preserve">
<rect x="0.5" y="-0.5" fill="none" width="114.9" height="114.9"/>
<path fill="#FBFBFB" d="M90.9,24.9c-0.5-0.8-1.4-1.2-2.2-1.2c-0.4,0-0.8,0.1-1.2,0.2L26.3,53.3c-0.9,0.5-1.5,1.4-1.5,2.5
	c0,1.1,0.6,2,1.6,2.4l21.3,9.4l10.5,21.2c0.5,0.9,1.4,1.5,2.4,1.5c1.1,0,2-0.6,2.5-1.5L91,27.4C91.4,26.6,91.3,25.7,90.9,24.9z
	 M77.8,40.4L60.5,78.2l-6.2-12.5L77.8,40.4z M74.1,37.5L49.5,61l-12.4-5.4L74.1,37.5z"/>
</svg>
