<?xml version="1.0" encoding="utf-8"?>
<!-- Generator: Adobe Illustrator 17.1.0, SVG Export Plug-In . SVG Version: 6.00 Build 0)  -->
<!DOCTYPE svg PUBLIC "-//W3C//DTD SVG 1.1//EN" "http://www.w3.org/Graphics/SVG/1.1/DTD/svg11.dtd">
<svg version="1.1" id="Calque_1" xmlns="http://www.w3.org/2000/svg" xmlns:xlink="http://www.w3.org/1999/xlink" x="0px" y="0px"
	 viewBox="0 0 114.9 114.9" enable-background="new 0 0 114.9 114.9" xml:space="preserve">
<path fill="#FBFBFB" fill-opacity="0.9" d="M74.9,66.4l-13.8-8.2V42c0-1.9-1.5-3.4-3.4-3.4h-0.2c-1.9,0-3.4,1.5-3.4,3.4v19.9
	l17.4,10.4c0.5,0.3,1.2,0.5,1.8,0.5l0,0c1.2,0,2.3-0.6,2.9-1.7v-0.1c0.5-0.8,0.6-1.7,0.4-2.6C76.2,67.6,75.7,66.9,74.9,66.4z"/>
<path fill="#FBFBFB" fill-opacity="0.9" d="M93,43.2c-1.9-4.5-4.6-8.5-8-11.9c-3.5-3.5-7.4-6.2-11.9-8c-4.6-1.9-9.5-2.9-14.5-2.9
	c-5.1,0-10.1,1-14.6,2.9c-4.5,1.9-8.5,4.6-11.9,8c-3.4,3.5-6.1,7.4-8,11.9C22,47.8,21,52.7,21,57.7s1,10,2.9,14.5
	c1.9,4.5,4.6,8.5,8,11.9c3.4,3.5,7.4,6.2,11.9,8c4.6,1.9,9.6,2.9,14.6,2.9c5.1,0,10.1-1,14.6-2.9c4.5-1.9,8.5-4.6,11.9-8
	c3.4-3.5,6.1-7.4,8-11.9C95,67.6,96,62.8,96,57.7C96,52.7,95,47.8,93,43.2z M58.4,88.8c-17.1,0-30.9-13.9-30.9-30.9
	s13.9-30.9,30.9-30.9c17.1,0,30.9,13.9,30.9,30.9S75.5,88.8,58.4,88.8z"/>
<rect x="1" y="0.4" fill="none" width="114.9" height="114.9"/>
</svg>
